<svg width="1440" height="436" viewBox="0 0 1440 436" fill="none" xmlns="http://www.w3.org/2000/svg">
<path d="M29.7734 145.4C13.5734 145.4 2.77344 134.2 2.77344 117.4V32.6C2.77344 13.4 16.7734 0.599998 37.7734 0.599998C58.7734 0.599998 72.7734 13.4 72.7734 32.6V51H40.7734V32.6C40.7734 30.8 39.5734 29.6 37.7734 29.6C35.9734 29.6 34.7734 30.8 34.7734 32.6V113.4C34.7734 115.2 36.1734 116.4 38.1734 116.4C40.1734 116.4 41.5734 115.2 41.5734 113.4V85H37.7734V59H72.7734V143H51.1734V136.2L51.7734 133.4H49.3734L48.7734 136.2C45.5734 142.2 38.3734 145.4 29.7734 145.4ZM77.5922 143V2.99999H127.592V32H109.592V58H125.592V86H109.592V114H127.592V143H77.5922ZM142.48 143V32H130.48V2.99999H186.48V32H174.48V143H142.48ZM234.073 143V97.2L212.673 2.99999H246.273L249.473 44V62H252.273V44L255.473 2.99999H287.473L266.073 97.2V143H234.073ZM319.414 145.4C298.414 145.4 284.414 132.6 284.414 113.4V32.6C284.414 13.4 298.414 0.599998 319.414 0.599998C340.414 0.599998 354.414 13.4 354.414 32.6V113.4C354.414 132.6 340.414 145.4 319.414 145.4ZM319.414 116.4C321.214 116.4 322.414 115.2 322.414 113.4V32.6C322.414 30.8 321.214 29.6 319.414 29.6C317.614 29.6 316.414 30.8 316.414 32.6V113.4C316.414 115.2 317.614 116.4 319.414 116.4ZM393.638 145.4C372.638 145.4 358.638 132.6 358.638 113.4V2.99999H390.638V113.4C390.638 115.2 391.838 116.4 393.638 116.4C395.438 116.4 396.638 115.2 396.638 113.4V2.99999H428.638V113.4C428.638 132.6 414.638 145.4 393.638 145.4ZM493.028 145.4C472.028 145.4 458.028 132.6 458.028 113.4V93H490.028V113.4C490.028 115.2 491.228 116.4 493.028 116.4C494.828 116.4 496.028 115.2 496.028 113.4V98C496.028 85 458.428 81.6 458.428 49.6V32.6C458.428 13.4 472.228 0.599998 493.028 0.599998C513.828 0.599998 527.628 13.4 527.628 32.6V50.6H495.628V32.2C495.628 30.6 494.628 29.6 493.028 29.6C491.428 29.6 490.428 30.6 490.428 32.2V45.6C490.428 58.6 528.028 62 528.028 94V113.4C528.028 132.6 514.028 145.4 493.028 145.4ZM566.289 145.4C545.289 145.4 531.289 132.6 531.289 113.4V32.6C531.289 13.4 545.289 0.599998 566.289 0.599998C587.289 0.599998 601.289 13.4 601.289 32.6V113.4C601.289 132.6 587.289 145.4 566.289 145.4ZM566.289 116.4C568.089 116.4 569.289 115.2 569.289 113.4V32.6C569.289 30.8 568.089 29.6 566.289 29.6C564.489 29.6 563.289 30.8 563.289 32.6V113.4C563.289 115.2 564.489 116.4 566.289 116.4ZM605.913 143V2.99999H661.913L664.913 84.2V111H667.713V84.2L670.713 2.99999H725.513V143H693.513V39H690.713V51L685.513 143H645.913L640.713 51V39H637.913V143H605.913ZM730.717 143V2.99999H780.717V32H762.717V58H778.717V86H762.717V114H780.717V143H730.717ZM810.405 143V2.99999H847.405C867.205 2.99999 880.405 15 880.405 33V67C880.405 85 867.205 97 847.405 97H842.405V143H810.405ZM845.405 32H842.405V68H845.405C847.205 68 848.405 66.8 848.405 65V35C848.405 33.2 847.205 32 845.405 32ZM918.242 145.4C897.242 145.4 883.242 132.6 883.242 113.4V32.6C883.242 13.4 897.242 0.599998 918.242 0.599998C939.242 0.599998 953.242 13.4 953.242 32.6V113.4C953.242 132.6 939.242 145.4 918.242 145.4ZM918.242 116.4C920.042 116.4 921.242 115.2 921.242 113.4V32.6C921.242 30.8 920.042 29.6 918.242 29.6C916.442 29.6 915.242 30.8 915.242 32.6V113.4C915.242 115.2 916.442 116.4 918.242 116.4ZM966.308 143L953.508 2.99999H987.108L989.708 95V107H992.308V95L994.908 2.99999H1036.91L1039.51 95V107H1042.11V95L1044.71 2.99999H1076.71L1063.91 143H1019.51L1016.51 61.8V35H1013.71V61.8L1010.71 143H966.308ZM1079.35 143V2.99999H1129.35V32H1111.35V58H1127.35V86H1111.35V114H1129.35V143H1079.35ZM1133.06 143V2.99999H1171.06C1190.26 2.99999 1203.06 14.6 1203.06 32V65C1203.06 72.6 1200.46 79 1196.06 83.8L1205.86 143H1173.86L1167.46 93H1165.06V143H1133.06ZM1168.06 32H1165.06V66H1168.06C1169.86 66 1171.06 64.8 1171.06 63V35C1171.06 33.2 1169.86 32 1168.06 32ZM1206.67 87.2V56.8H1241.07V87.2H1206.67ZM1279.58 145.4C1258.58 145.4 1244.58 132.6 1244.58 113.4V2.99999H1276.58V113.4C1276.58 115.2 1277.78 116.4 1279.58 116.4C1281.38 116.4 1282.58 115.2 1282.58 113.4V2.99999H1314.58V113.4C1314.58 132.6 1300.58 145.4 1279.58 145.4ZM1319.39 143V2.99999H1356.39C1376.19 2.99999 1389.39 15 1389.39 33V67C1389.39 85 1376.19 97 1356.39 97H1351.39V143H1319.39ZM1354.39 32H1351.39V68H1354.39C1356.19 68 1357.39 66.8 1357.39 65V35C1357.39 33.2 1356.19 32 1354.39 32ZM1392.83 143V2.99999H1429.83C1449.63 2.99999 1462.83 15 1462.83 33V67C1462.83 85 1449.63 97 1429.83 97H1424.83V143H1392.83ZM1427.83 32H1424.83V68H1427.83C1429.63 68 1430.83 66.8 1430.83 65V35C1430.83 33.2 1429.63 32 1427.83 32ZM1466.26 143V2.99999H1503.26C1523.06 2.99999 1536.26 15 1536.26 33V67C1536.26 85 1523.06 97 1503.26 97H1498.26V143H1466.26ZM1501.26 32H1498.26V68H1501.26C1503.06 68 1504.26 66.8 1504.26 65V35C1504.26 33.2 1503.06 32 1501.26 32ZM1539.7 143V2.99999H1576.7C1596.5 2.99999 1609.7 15 1609.7 33V67C1609.7 85 1596.5 97 1576.7 97H1571.7V143H1539.7ZM1574.7 32H1571.7V68H1574.7C1576.5 68 1577.7 66.8 1577.7 65V35C1577.7 33.2 1576.5 32 1574.7 32ZM1646.74 145.4C1625.74 145.4 1611.74 132.6 1611.74 113.4V93H1643.74V113.4C1643.74 115.2 1644.94 116.4 1646.74 116.4C1648.54 116.4 1649.74 115.2 1649.74 113.4V98C1649.74 85 1612.14 81.6 1612.14 49.6V32.6C1612.14 13.4 1625.94 0.599998 1646.74 0.599998C1667.54 0.599998 1681.34 13.4 1681.34 32.6V50.6H1649.34V32.2C1649.34 30.6 1648.34 29.6 1646.74 29.6C1645.14 29.6 1644.14 30.6 1644.14 32.2V45.6C1644.14 58.6 1681.74 62 1681.74 94V113.4C1681.74 132.6 1667.74 145.4 1646.74 145.4Z" fill="#191919"/>
<path d="M-487.227 290.4C-503.427 290.4 -514.227 279.2 -514.227 262.4V177.6C-514.227 158.4 -500.227 145.6 -479.227 145.6C-458.227 145.6 -444.227 158.4 -444.227 177.6V196H-476.227V177.6C-476.227 175.8 -477.427 174.6 -479.227 174.6C-481.027 174.6 -482.227 175.8 -482.227 177.6V258.4C-482.227 260.2 -480.827 261.4 -478.827 261.4C-476.827 261.4 -475.427 260.2 -475.427 258.4V230H-479.227V204H-444.227V288H-465.827V281.2L-465.227 278.4H-467.627L-468.227 281.2C-471.427 287.2 -478.627 290.4 -487.227 290.4ZM-439.408 288V148H-389.408V177H-407.408V203H-391.408V231H-407.408V259H-389.408V288H-439.408ZM-374.52 288V177H-386.52V148H-330.52V177H-342.52V288H-374.52ZM-282.927 288V242.2L-304.327 148H-270.727L-267.527 189V207H-264.727V189L-261.527 148H-229.527L-250.927 242.2V288H-282.927ZM-197.586 290.4C-218.586 290.4 -232.586 277.6 -232.586 258.4V177.6C-232.586 158.4 -218.586 145.6 -197.586 145.6C-176.586 145.6 -162.586 158.4 -162.586 177.6V258.4C-162.586 277.6 -176.586 290.4 -197.586 290.4ZM-197.586 261.4C-195.786 261.4 -194.586 260.2 -194.586 258.4V177.6C-194.586 175.8 -195.786 174.6 -197.586 174.6C-199.386 174.6 -200.586 175.8 -200.586 177.6V258.4C-200.586 260.2 -199.386 261.4 -197.586 261.4ZM-123.362 290.4C-144.362 290.4 -158.362 277.6 -158.362 258.4V148H-126.362V258.4C-126.362 260.2 -125.162 261.4 -123.362 261.4C-121.562 261.4 -120.362 260.2 -120.362 258.4V148H-88.3625V258.4C-88.3625 277.6 -102.362 290.4 -123.362 290.4ZM-23.9719 290.4C-44.9719 290.4 -58.9719 277.6 -58.9719 258.4V238H-26.9719V258.4C-26.9719 260.2 -25.7719 261.4 -23.9719 261.4C-22.1719 261.4 -20.9719 260.2 -20.9719 258.4V243C-20.9719 230 -58.5719 226.6 -58.5719 194.6V177.6C-58.5719 158.4 -44.7719 145.6 -23.9719 145.6C-3.17187 145.6 10.6281 158.4 10.6281 177.6V195.6H-21.3719V177.2C-21.3719 175.6 -22.3719 174.6 -23.9719 174.6C-25.5719 174.6 -26.5719 175.6 -26.5719 177.2V190.6C-26.5719 203.6 11.0281 207 11.0281 239V258.4C11.0281 277.6 -2.97187 290.4 -23.9719 290.4ZM49.2891 290.4C28.2891 290.4 14.2891 277.6 14.2891 258.4V177.6C14.2891 158.4 28.2891 145.6 49.2891 145.6C70.2891 145.6 84.2891 158.4 84.2891 177.6V258.4C84.2891 277.6 70.2891 290.4 49.2891 290.4ZM49.2891 261.4C51.0891 261.4 52.2891 260.2 52.2891 258.4V177.6C52.2891 175.8 51.0891 174.6 49.2891 174.6C47.4891 174.6 46.2891 175.8 46.2891 177.6V258.4C46.2891 260.2 47.4891 261.4 49.2891 261.4ZM88.9125 288V148H144.913L147.913 229.2V256H150.713V229.2L153.713 148H208.513V288H176.513V184H173.713V196L168.513 288H128.913L123.713 196V184H120.913V288H88.9125ZM213.717 288V148H263.717V177H245.717V203H261.717V231H245.717V259H263.717V288H213.717ZM293.405 288V148H330.405C350.205 148 363.405 160 363.405 178V212C363.405 230 350.205 242 330.405 242H325.405V288H293.405ZM328.405 177H325.405V213H328.405C330.205 213 331.405 211.8 331.405 210V180C331.405 178.2 330.205 177 328.405 177ZM401.242 290.4C380.242 290.4 366.242 277.6 366.242 258.4V177.6C366.242 158.4 380.242 145.6 401.242 145.6C422.242 145.6 436.242 158.4 436.242 177.6V258.4C436.242 277.6 422.242 290.4 401.242 290.4ZM401.242 261.4C403.042 261.4 404.242 260.2 404.242 258.4V177.6C404.242 175.8 403.042 174.6 401.242 174.6C399.442 174.6 398.242 175.8 398.242 177.6V258.4C398.242 260.2 399.442 261.4 401.242 261.4ZM449.308 288L436.508 148H470.108L472.708 240V252H475.308V240L477.908 148H519.908L522.508 240V252H525.108V240L527.708 148H559.708L546.908 288H502.508L499.508 206.8V180H496.708V206.8L493.708 288H449.308ZM562.35 288V148H612.35V177H594.35V203H610.35V231H594.35V259H612.35V288H562.35ZM616.061 288V148H654.061C673.261 148 686.061 159.6 686.061 177V210C686.061 217.6 683.461 224 679.061 228.8L688.861 288H656.861L650.461 238H648.061V288H616.061ZM651.061 177H648.061V211H651.061C652.861 211 654.061 209.8 654.061 208V180C654.061 178.2 652.861 177 651.061 177ZM689.666 232.2V201.8H724.066V232.2H689.666ZM762.575 290.4C741.575 290.4 727.575 277.6 727.575 258.4V148H759.575V258.4C759.575 260.2 760.775 261.4 762.575 261.4C764.375 261.4 765.575 260.2 765.575 258.4V148H797.575V258.4C797.575 277.6 783.575 290.4 762.575 290.4ZM802.389 288V148H839.389C859.189 148 872.389 160 872.389 178V212C872.389 230 859.189 242 839.389 242H834.389V288H802.389ZM837.389 177H834.389V213H837.389C839.189 213 840.389 211.8 840.389 210V180C840.389 178.2 839.189 177 837.389 177ZM875.827 288V148H912.827C932.627 148 945.827 160 945.827 178V212C945.827 230 932.627 242 912.827 242H907.827V288H875.827ZM910.827 177H907.827V213H910.827C912.627 213 913.827 211.8 913.827 210V180C913.827 178.2 912.627 177 910.827 177ZM949.264 288V148H986.264C1006.06 148 1019.26 160 1019.26 178V212C1019.26 230 1006.06 242 986.264 242H981.264V288H949.264ZM984.264 177H981.264V213H984.264C986.064 213 987.264 211.8 987.264 210V180C987.264 178.2 986.064 177 984.264 177ZM1022.7 288V148H1059.7C1079.5 148 1092.7 160 1092.7 178V212C1092.7 230 1079.5 242 1059.7 242H1054.7V288H1022.7ZM1057.7 177H1054.7V213H1057.7C1059.5 213 1060.7 211.8 1060.7 210V180C1060.7 178.2 1059.5 177 1057.7 177ZM1129.74 290.4C1108.74 290.4 1094.74 277.6 1094.74 258.4V238H1126.74V258.4C1126.74 260.2 1127.94 261.4 1129.74 261.4C1131.54 261.4 1132.74 260.2 1132.74 258.4V243C1132.74 230 1095.14 226.6 1095.14 194.6V177.6C1095.14 158.4 1108.94 145.6 1129.74 145.6C1150.54 145.6 1164.34 158.4 1164.34 177.6V195.6H1132.34V177.2C1132.34 175.6 1131.34 174.6 1129.74 174.6C1128.14 174.6 1127.14 175.6 1127.14 177.2V190.6C1127.14 203.6 1164.74 207 1164.74 239V258.4C1164.74 277.6 1150.74 290.4 1129.74 290.4Z" fill="#191919"/>
<path d="M216.773 435.4C200.573 435.4 189.773 424.2 189.773 407.4V322.6C189.773 303.4 203.773 290.6 224.773 290.6C245.773 290.6 259.773 303.4 259.773 322.6V341H227.773V322.6C227.773 320.8 226.573 319.6 224.773 319.6C222.973 319.6 221.773 320.8 221.773 322.6V403.4C221.773 405.2 223.173 406.4 225.173 406.4C227.173 406.4 228.573 405.2 228.573 403.4V375H224.773V349H259.773V433H238.173V426.2L238.773 423.4H236.373L235.773 426.2C232.573 432.2 225.373 435.4 216.773 435.4ZM264.592 433V293H314.592V322H296.592V348H312.592V376H296.592V404H314.592V433H264.592ZM329.48 433V322H317.48V293H373.48V322H361.48V433H329.48ZM421.073 433V387.2L399.673 293H433.273L436.473 334V352H439.273V334L442.473 293H474.473L453.073 387.2V433H421.073ZM506.414 435.4C485.414 435.4 471.414 422.6 471.414 403.4V322.6C471.414 303.4 485.414 290.6 506.414 290.6C527.414 290.6 541.414 303.4 541.414 322.6V403.4C541.414 422.6 527.414 435.4 506.414 435.4ZM506.414 406.4C508.214 406.4 509.414 405.2 509.414 403.4V322.6C509.414 320.8 508.214 319.6 506.414 319.6C504.614 319.6 503.414 320.8 503.414 322.6V403.4C503.414 405.2 504.614 406.4 506.414 406.4ZM580.638 435.4C559.638 435.4 545.638 422.6 545.638 403.4V293H577.638V403.4C577.638 405.2 578.838 406.4 580.638 406.4C582.438 406.4 583.638 405.2 583.638 403.4V293H615.638V403.4C615.638 422.6 601.638 435.4 580.638 435.4ZM680.028 435.4C659.028 435.4 645.028 422.6 645.028 403.4V383H677.028V403.4C677.028 405.2 678.228 406.4 680.028 406.4C681.828 406.4 683.028 405.2 683.028 403.4V388C683.028 375 645.428 371.6 645.428 339.6V322.6C645.428 303.4 659.228 290.6 680.028 290.6C700.828 290.6 714.628 303.4 714.628 322.6V340.6H682.628V322.2C682.628 320.6 681.628 319.6 680.028 319.6C678.428 319.6 677.428 320.6 677.428 322.2V335.6C677.428 348.6 715.028 352 715.028 384V403.4C715.028 422.6 701.028 435.4 680.028 435.4ZM753.289 435.4C732.289 435.4 718.289 422.6 718.289 403.4V322.6C718.289 303.4 732.289 290.6 753.289 290.6C774.289 290.6 788.289 303.4 788.289 322.6V403.4C788.289 422.6 774.289 435.4 753.289 435.4ZM753.289 406.4C755.089 406.4 756.289 405.2 756.289 403.4V322.6C756.289 320.8 755.089 319.6 753.289 319.6C751.489 319.6 750.289 320.8 750.289 322.6V403.4C750.289 405.2 751.489 406.4 753.289 406.4ZM792.913 433V293H848.913L851.913 374.2V401H854.713V374.2L857.713 293H912.513V433H880.513V329H877.713V341L872.513 433H832.913L827.713 341V329H824.913V433H792.913ZM917.717 433V293H967.717V322H949.717V348H965.717V376H949.717V404H967.717V433H917.717ZM997.405 433V293H1034.4C1054.2 293 1067.4 305 1067.4 323V357C1067.4 375 1054.2 387 1034.4 387H1029.4V433H997.405ZM1032.4 322H1029.4V358H1032.4C1034.2 358 1035.4 356.8 1035.4 355V325C1035.4 323.2 1034.2 322 1032.4 322ZM1105.24 435.4C1084.24 435.4 1070.24 422.6 1070.24 403.4V322.6C1070.24 303.4 1084.24 290.6 1105.24 290.6C1126.24 290.6 1140.24 303.4 1140.24 322.6V403.4C1140.24 422.6 1126.24 435.4 1105.24 435.4ZM1105.24 406.4C1107.04 406.4 1108.24 405.2 1108.24 403.4V322.6C1108.24 320.8 1107.04 319.6 1105.24 319.6C1103.44 319.6 1102.24 320.8 1102.24 322.6V403.4C1102.24 405.2 1103.44 406.4 1105.24 406.4ZM1153.31 433L1140.51 293H1174.11L1176.71 385V397H1179.31V385L1181.91 293H1223.91L1226.51 385V397H1229.11V385L1231.71 293H1263.71L1250.91 433H1206.51L1203.51 351.8V325H1200.71V351.8L1197.71 433H1153.31ZM1266.35 433V293H1316.35V322H1298.35V348H1314.35V376H1298.35V404H1316.35V433H1266.35ZM1320.06 433V293H1358.06C1377.26 293 1390.06 304.6 1390.06 322V355C1390.06 362.6 1387.46 369 1383.06 373.8L1392.86 433H1360.86L1354.46 383H1352.06V433H1320.06ZM1355.06 322H1352.06V356H1355.06C1356.86 356 1358.06 354.8 1358.06 353V325C1358.06 323.2 1356.86 322 1355.06 322ZM1393.67 377.2V346.8H1428.07V377.2H1393.67ZM1466.58 435.4C1445.58 435.4 1431.58 422.6 1431.58 403.4V293H1463.58V403.4C1463.58 405.2 1464.78 406.4 1466.58 406.4C1468.38 406.4 1469.58 405.2 1469.58 403.4V293H1501.58V403.4C1501.58 422.6 1487.58 435.4 1466.58 435.4ZM1506.39 433V293H1543.39C1563.19 293 1576.39 305 1576.39 323V357C1576.39 375 1563.19 387 1543.39 387H1538.39V433H1506.39ZM1541.39 322H1538.39V358H1541.39C1543.19 358 1544.39 356.8 1544.39 355V325C1544.39 323.2 1543.19 322 1541.39 322ZM1579.83 433V293H1616.83C1636.63 293 1649.83 305 1649.83 323V357C1649.83 375 1636.63 387 1616.83 387H1611.83V433H1579.83ZM1614.83 322H1611.83V358H1614.83C1616.63 358 1617.83 356.8 1617.83 355V325C1617.83 323.2 1616.63 322 1614.83 322ZM1653.26 433V293H1690.26C1710.06 293 1723.26 305 1723.26 323V357C1723.26 375 1710.06 387 1690.26 387H1685.26V433H1653.26ZM1688.26 322H1685.26V358H1688.26C1690.06 358 1691.26 356.8 1691.26 355V325C1691.26 323.2 1690.06 322 1688.26 322ZM1726.7 433V293H1763.7C1783.5 293 1796.7 305 1796.7 323V357C1796.7 375 1783.5 387 1763.7 387H1758.7V433H1726.7ZM1761.7 322H1758.7V358H1761.7C1763.5 358 1764.7 356.8 1764.7 355V325C1764.7 323.2 1763.5 322 1761.7 322ZM1833.74 435.4C1812.74 435.4 1798.74 422.6 1798.74 403.4V383H1830.74V403.4C1830.74 405.2 1831.94 406.4 1833.74 406.4C1835.54 406.4 1836.74 405.2 1836.74 403.4V388C1836.74 375 1799.14 371.6 1799.14 339.6V322.6C1799.14 303.4 1812.94 290.6 1833.74 290.6C1854.54 290.6 1868.34 303.4 1868.34 322.6V340.6H1836.34V322.2C1836.34 320.6 1835.34 319.6 1833.74 319.6C1832.14 319.6 1831.14 320.6 1831.14 322.2V335.6C1831.14 348.6 1868.74 352 1868.74 384V403.4C1868.74 422.6 1854.74 435.4 1833.74 435.4Z" fill="#191919"/>
<path d="M-1513.23 435.4C-1529.43 435.4 -1540.23 424.2 -1540.23 407.4V322.6C-1540.23 303.4 -1526.23 290.6 -1505.23 290.6C-1484.23 290.6 -1470.23 303.4 -1470.23 322.6V341H-1502.23V322.6C-1502.23 320.8 -1503.43 319.6 -1505.23 319.6C-1507.03 319.6 -1508.23 320.8 -1508.23 322.6V403.4C-1508.23 405.2 -1506.83 406.4 -1504.83 406.4C-1502.83 406.4 -1501.43 405.2 -1501.43 403.4V375H-1505.23V349H-1470.23V433H-1491.83V426.2L-1491.23 423.4H-1493.63L-1494.23 426.2C-1497.43 432.2 -1504.63 435.4 -1513.23 435.4ZM-1465.41 433V293H-1415.41V322H-1433.41V348H-1417.41V376H-1433.41V404H-1415.41V433H-1465.41ZM-1400.52 433V322H-1412.52V293H-1356.52V322H-1368.52V433H-1400.52ZM-1308.93 433V387.2L-1330.33 293H-1296.73L-1293.53 334V352H-1290.73V334L-1287.53 293H-1255.53L-1276.93 387.2V433H-1308.93ZM-1223.59 435.4C-1244.59 435.4 -1258.59 422.6 -1258.59 403.4V322.6C-1258.59 303.4 -1244.59 290.6 -1223.59 290.6C-1202.59 290.6 -1188.59 303.4 -1188.59 322.6V403.4C-1188.59 422.6 -1202.59 435.4 -1223.59 435.4ZM-1223.59 406.4C-1221.79 406.4 -1220.59 405.2 -1220.59 403.4V322.6C-1220.59 320.8 -1221.79 319.6 -1223.59 319.6C-1225.39 319.6 -1226.59 320.8 -1226.59 322.6V403.4C-1226.59 405.2 -1225.39 406.4 -1223.59 406.4ZM-1149.36 435.4C-1170.36 435.4 -1184.36 422.6 -1184.36 403.4V293H-1152.36V403.4C-1152.36 405.2 -1151.16 406.4 -1149.36 406.4C-1147.56 406.4 -1146.36 405.2 -1146.36 403.4V293H-1114.36V403.4C-1114.36 422.6 -1128.36 435.4 -1149.36 435.4ZM-1049.97 435.4C-1070.97 435.4 -1084.97 422.6 -1084.97 403.4V383H-1052.97V403.4C-1052.97 405.2 -1051.77 406.4 -1049.97 406.4C-1048.17 406.4 -1046.97 405.2 -1046.97 403.4V388C-1046.97 375 -1084.57 371.6 -1084.57 339.6V322.6C-1084.57 303.4 -1070.77 290.6 -1049.97 290.6C-1029.17 290.6 -1015.37 303.4 -1015.37 322.6V340.6H-1047.37V322.2C-1047.37 320.6 -1048.37 319.6 -1049.97 319.6C-1051.57 319.6 -1052.57 320.6 -1052.57 322.2V335.6C-1052.57 348.6 -1014.97 352 -1014.97 384V403.4C-1014.97 422.6 -1028.97 435.4 -1049.97 435.4ZM-976.711 435.4C-997.711 435.4 -1011.71 422.6 -1011.71 403.4V322.6C-1011.71 303.4 -997.711 290.6 -976.711 290.6C-955.711 290.6 -941.711 303.4 -941.711 322.6V403.4C-941.711 422.6 -955.711 435.4 -976.711 435.4ZM-976.711 406.4C-974.911 406.4 -973.711 405.2 -973.711 403.4V322.6C-973.711 320.8 -974.911 319.6 -976.711 319.6C-978.511 319.6 -979.711 320.8 -979.711 322.6V403.4C-979.711 405.2 -978.511 406.4 -976.711 406.4ZM-937.087 433V293H-881.087L-878.087 374.2V401H-875.287V374.2L-872.287 293H-817.487V433H-849.487V329H-852.287V341L-857.487 433H-897.087L-902.287 341V329H-905.087V433H-937.087ZM-812.283 433V293H-762.283V322H-780.283V348H-764.283V376H-780.283V404H-762.283V433H-812.283ZM-732.595 433V293H-695.595C-675.795 293 -662.595 305 -662.595 323V357C-662.595 375 -675.795 387 -695.595 387H-700.595V433H-732.595ZM-697.595 322H-700.595V358H-697.595C-695.795 358 -694.595 356.8 -694.595 355V325C-694.595 323.2 -695.795 322 -697.595 322ZM-624.758 435.4C-645.758 435.4 -659.758 422.6 -659.758 403.4V322.6C-659.758 303.4 -645.758 290.6 -624.758 290.6C-603.758 290.6 -589.758 303.4 -589.758 322.6V403.4C-589.758 422.6 -603.758 435.4 -624.758 435.4ZM-624.758 406.4C-622.958 406.4 -621.758 405.2 -621.758 403.4V322.6C-621.758 320.8 -622.958 319.6 -624.758 319.6C-626.558 319.6 -627.758 320.8 -627.758 322.6V403.4C-627.758 405.2 -626.558 406.4 -624.758 406.4ZM-576.692 433L-589.492 293H-555.892L-553.292 385V397H-550.692V385L-548.092 293H-506.092L-503.492 385V397H-500.892V385L-498.292 293H-466.292L-479.092 433H-523.492L-526.492 351.8V325H-529.292V351.8L-532.292 433H-576.692ZM-463.65 433V293H-413.65V322H-431.65V348H-415.65V376H-431.65V404H-413.65V433H-463.65ZM-409.939 433V293H-371.939C-352.739 293 -339.939 304.6 -339.939 322V355C-339.939 362.6 -342.539 369 -346.939 373.8L-337.139 433H-369.139L-375.539 383H-377.939V433H-409.939ZM-374.939 322H-377.939V356H-374.939C-373.139 356 -371.939 354.8 -371.939 353V325C-371.939 323.2 -373.139 322 -374.939 322ZM-336.334 377.2V346.8H-301.934V377.2H-336.334ZM-263.425 435.4C-284.425 435.4 -298.425 422.6 -298.425 403.4V293H-266.425V403.4C-266.425 405.2 -265.225 406.4 -263.425 406.4C-261.625 406.4 -260.425 405.2 -260.425 403.4V293H-228.425V403.4C-228.425 422.6 -242.425 435.4 -263.425 435.4ZM-223.611 433V293H-186.611C-166.811 293 -153.611 305 -153.611 323V357C-153.611 375 -166.811 387 -186.611 387H-191.611V433H-223.611ZM-188.611 322H-191.611V358H-188.611C-186.811 358 -185.611 356.8 -185.611 355V325C-185.611 323.2 -186.811 322 -188.611 322ZM-150.173 433V293H-113.173C-93.3734 293 -80.1734 305 -80.1734 323V357C-80.1734 375 -93.3734 387 -113.173 387H-118.173V433H-150.173ZM-115.173 322H-118.173V358H-115.173C-113.373 358 -112.173 356.8 -112.173 355V325C-112.173 323.2 -113.373 322 -115.173 322ZM-76.7359 433V293H-39.7359C-19.9359 293 -6.73594 305 -6.73594 323V357C-6.73594 375 -19.9359 387 -39.7359 387H-44.7359V433H-76.7359ZM-41.7359 322H-44.7359V358H-41.7359C-39.9359 358 -38.7359 356.8 -38.7359 355V325C-38.7359 323.2 -39.9359 322 -41.7359 322ZM-3.29844 433V293H33.7016C53.5016 293 66.7016 305 66.7016 323V357C66.7016 375 53.5016 387 33.7016 387H28.7016V433H-3.29844ZM31.7016 322H28.7016V358H31.7016C33.5016 358 34.7016 356.8 34.7016 355V325C34.7016 323.2 33.5016 322 31.7016 322ZM103.739 435.4C82.7391 435.4 68.7391 422.6 68.7391 403.4V383H100.739V403.4C100.739 405.2 101.939 406.4 103.739 406.4C105.539 406.4 106.739 405.2 106.739 403.4V388C106.739 375 69.1391 371.6 69.1391 339.6V322.6C69.1391 303.4 82.9391 290.6 103.739 290.6C124.539 290.6 138.339 303.4 138.339 322.6V340.6H106.339V322.2C106.339 320.6 105.339 319.6 103.739 319.6C102.139 319.6 101.139 320.6 101.139 322.2V335.6C101.139 348.6 138.739 352 138.739 384V403.4C138.739 422.6 124.739 435.4 103.739 435.4Z" fill="#191919"/>
</svg>
