<svg width="175" height="1066" viewBox="0 0 175 1066" fill="none" xmlns="http://www.w3.org/2000/svg">
<mask id="path-1-inside-1_3422_334" fill="white">
<path d="M4.24622 0.602029L198.202 0.602038L198.202 69.872L158.026 69.872L158.026 44.9348L122.005 44.9348L122.005 67.1012L83.214 67.1012L83.214 44.9348L4.24621 44.9348L4.24622 0.602029ZM4.24621 74.7425L198.202 74.7425L198.202 119.075L44.4228 119.075L44.4228 142.627L4.24621 142.627L4.24621 74.7425ZM4.24621 144.74L198.202 163.858L198.202 230.912L4.2462 250.03L4.24621 203.204L47.1936 201.541L47.1936 191.012L4.24621 189.35L4.24621 144.74ZM137.245 194.337L83.214 192.398L83.214 200.156L137.245 198.216L153.869 198.216L153.869 194.337L137.245 194.337ZM4.2462 260.709L198.202 242.421L198.202 288.971L70.7454 293.127L48.579 293.127L48.579 297.006L70.7454 297.006L198.202 301.162L198.202 345.495L4.2462 327.208L4.2462 260.709ZM0.921241 394.339C0.921242 365.246 18.6544 345.85 45.254 345.85L157.194 345.85C183.794 345.85 201.527 365.246 201.527 394.339C201.527 423.432 183.794 442.828 157.194 442.828L45.254 442.828C18.6543 442.828 0.92124 423.432 0.921241 394.339ZM41.0978 394.339C41.0978 396.833 42.7603 398.495 45.254 398.495L157.194 398.495C159.688 398.495 161.35 396.833 161.35 394.339C161.35 391.845 159.688 390.183 157.194 390.183L45.254 390.183C42.7603 390.183 41.0978 391.845 41.0978 394.339ZM4.2462 449.233L198.202 449.233L198.202 501.878C198.202 528.478 182.131 546.211 158.025 546.211L112.307 546.211C101.778 546.211 92.9117 542.609 86.2618 536.513L4.24619 550.09L4.24619 505.757L73.5161 496.891L73.5161 493.566L4.24619 493.566L4.2462 449.233ZM158.025 497.722L158.025 493.566L110.922 493.566L110.922 497.722C110.922 500.216 112.584 501.878 115.078 501.878L153.869 501.878C156.363 501.878 158.025 500.216 158.025 497.722ZM4.24619 588.855L198.202 588.855L198.202 642.886C198.202 668.654 182.686 685.833 159.411 685.833L134.197 685.833C123.113 685.833 110.645 680.569 105.657 670.04L103.995 670.04C99.0075 680.846 85.9847 686.942 74.6245 686.942L43.0374 686.942C19.7627 686.942 4.24619 669.763 4.24619 643.994L4.24619 588.855ZM158.025 637.344L158.025 633.188L121.451 633.188L121.451 637.344C121.451 639.838 123.113 641.501 125.607 641.501L153.869 641.501C156.363 641.501 158.025 639.838 158.025 637.344ZM84.0452 638.453L84.0452 633.188L44.4228 633.188L44.4228 638.453C44.4228 640.946 46.0852 642.609 48.579 642.609L79.889 642.609C82.3827 642.609 84.0452 640.946 84.0452 638.453ZM0.921226 739.336C0.921227 710.242 18.6543 690.847 45.254 690.847L157.194 690.847C183.794 690.847 201.527 710.242 201.527 739.336C201.527 768.429 183.794 787.825 157.194 787.825L45.254 787.825C18.6543 787.825 0.921224 768.429 0.921226 739.336ZM41.0978 739.336C41.0978 741.829 42.7603 743.492 45.254 743.492L157.194 743.492C159.688 743.492 161.35 741.829 161.35 739.336C161.35 736.842 159.688 735.18 157.194 735.18L45.254 735.18C42.7603 735.18 41.0978 736.842 41.0978 739.336ZM4.24618 794.23L198.202 794.23L198.202 871.812L85.7076 875.969L48.5789 875.969L48.5789 879.848L85.7076 879.848L198.202 884.004L198.202 959.924L4.24617 959.924L4.24618 915.591L148.328 915.591L148.328 911.712L131.703 911.712L4.24618 904.508L4.24618 849.646L131.703 842.442L148.328 842.442L148.328 838.563L4.24618 838.563L4.24618 794.23ZM4.24617 967.134L198.202 967.134L198.202 1021.16C198.202 1046.93 182.686 1064.11 159.411 1064.11L134.197 1064.11C123.113 1064.11 110.645 1058.85 105.657 1048.32L103.995 1048.32C99.0075 1059.12 85.9847 1065.22 74.6244 1065.22L43.0373 1065.22C19.7626 1065.22 4.24617 1048.04 4.24617 1022.27L4.24617 967.134ZM158.025 1015.62L158.025 1011.47L121.451 1011.47L121.451 1015.62C121.451 1018.12 123.113 1019.78 125.607 1019.78L153.869 1019.78C156.363 1019.78 158.025 1018.12 158.025 1015.62ZM84.0452 1016.73L84.0452 1011.47L44.4227 1011.47L44.4227 1016.73C44.4227 1019.23 46.0852 1020.89 48.5789 1020.89L79.889 1020.89C82.3827 1020.89 84.0452 1019.23 84.0452 1016.73Z"/>
</mask>
<path d="M4.24622 0.602029L4.24622 -2.45482L1.18936 -2.45482L1.18936 0.602029L4.24622 0.602029ZM198.202 0.602038L201.259 0.602038L201.259 -2.45481L198.202 -2.45481L198.202 0.602038ZM198.202 69.872L198.202 72.9288L201.259 72.9288L201.259 69.872L198.202 69.872ZM158.026 69.872L154.969 69.872L154.969 72.9288L158.026 72.9288L158.026 69.872ZM158.026 44.9348L161.082 44.9348L161.082 41.878L158.026 41.878L158.026 44.9348ZM122.005 44.9348L122.005 41.878L118.948 41.878L118.948 44.9348L122.005 44.9348ZM122.005 67.1012L122.005 70.158L125.062 70.158L125.062 67.1012L122.005 67.1012ZM83.214 67.1012L80.1571 67.1012L80.1571 70.158L83.214 70.158L83.214 67.1012ZM83.214 44.9348L86.2708 44.9348L86.2708 41.878L83.214 41.878L83.214 44.9348ZM4.24621 44.9348L1.18936 44.9348L1.18936 47.9917L4.24621 47.9917L4.24621 44.9348ZM4.24622 3.65888L198.202 3.65889L198.202 -2.45481L4.24622 -2.45482L4.24622 3.65888ZM195.145 0.602037L195.145 69.872L201.259 69.872L201.259 0.602038L195.145 0.602037ZM198.202 66.8151L158.026 66.8151L158.026 72.9288L198.202 72.9288L198.202 66.8151ZM161.082 69.872L161.082 44.9348L154.969 44.9348L154.969 69.872L161.082 69.872ZM158.026 41.878L122.005 41.878L122.005 47.9917L158.026 47.9917L158.026 41.878ZM118.948 44.9348L118.948 67.1012L125.062 67.1012L125.062 44.9348L118.948 44.9348ZM122.005 64.0443L83.214 64.0443L83.214 70.158L122.005 70.158L122.005 64.0443ZM86.2708 67.1012L86.2708 44.9348L80.1571 44.9348L80.1571 67.1012L86.2708 67.1012ZM83.214 41.878L4.24621 41.8779L4.24621 47.9917L83.214 47.9917L83.214 41.878ZM7.30307 44.9348L7.30307 0.602029L1.18936 0.602029L1.18936 44.9348L7.30307 44.9348ZM4.24621 74.7425L4.24621 71.6857L1.18936 71.6857L1.18936 74.7425L4.24621 74.7425ZM198.202 74.7425L201.259 74.7425L201.259 71.6857L198.202 71.6857L198.202 74.7425ZM198.202 119.075L198.202 122.132L201.259 122.132L201.259 119.075L198.202 119.075ZM44.4228 119.075L44.4228 116.018L41.3659 116.018L41.3659 119.075L44.4228 119.075ZM44.4228 142.627L44.4228 145.684L47.4796 145.684L47.4796 142.627L44.4228 142.627ZM4.24621 142.627L1.18936 142.627L1.18936 145.684L4.24621 145.684L4.24621 142.627ZM4.24621 77.7994L198.202 77.7994L198.202 71.6857L4.24621 71.6857L4.24621 77.7994ZM195.145 74.7425L195.145 119.075L201.259 119.075L201.259 74.7425L195.145 74.7425ZM198.202 116.018L44.4228 116.018L44.4228 122.132L198.202 122.132L198.202 116.018ZM41.3659 119.075L41.3659 142.627L47.4796 142.627L47.4796 119.075L41.3659 119.075ZM44.4228 139.57L4.24621 139.57L4.24621 145.684L44.4228 145.684L44.4228 139.57ZM7.30306 142.627L7.30307 74.7425L1.18936 74.7425L1.18936 142.627L7.30306 142.627ZM4.24621 144.74L4.54608 141.698L1.18936 141.367L1.18936 144.74L4.24621 144.74ZM198.202 163.858L201.259 163.858L201.259 161.088L198.502 160.816L198.202 163.858ZM198.202 230.912L198.502 233.954L201.259 233.682L201.259 230.912L198.202 230.912ZM4.2462 250.03L1.18935 250.03L1.18935 253.403L4.54607 253.072L4.2462 250.03ZM4.24621 203.204L4.12797 200.149L1.18935 200.263L1.18935 203.204L4.24621 203.204ZM47.1936 201.541L47.3118 204.596L50.2504 204.482L50.2504 201.541L47.1936 201.541ZM47.1936 191.012L50.2504 191.012L50.2504 188.071L47.3118 187.958L47.1936 191.012ZM4.24621 189.35L1.18935 189.35L1.18935 192.29L4.12797 192.404L4.24621 189.35ZM137.245 194.337L137.135 197.392L137.19 197.394L137.245 197.394L137.245 194.337ZM83.214 192.398L83.3236 189.343L80.1571 189.229L80.1571 192.398L83.214 192.398ZM83.214 200.156L80.1571 200.156L80.1571 203.324L83.3236 203.211L83.214 200.156ZM137.245 198.216L137.245 195.159L137.19 195.159L137.135 195.161L137.245 198.216ZM153.869 198.216L153.869 201.273L156.926 201.273L156.926 198.216L153.869 198.216ZM153.869 194.337L156.926 194.337L156.926 191.28L153.869 191.28L153.869 194.337ZM3.94634 147.782L197.902 166.9L198.502 160.816L4.54608 141.698L3.94634 147.782ZM195.145 163.858L195.145 230.912L201.259 230.912L201.259 163.858L195.145 163.858ZM197.902 227.87L3.94634 246.988L4.54607 253.072L198.502 233.954L197.902 227.87ZM7.30306 250.03L7.30306 203.204L1.18935 203.204L1.18935 250.03L7.30306 250.03ZM4.36445 206.258L47.3118 204.596L47.0753 198.487L4.12797 200.149L4.36445 206.258ZM50.2504 201.541L50.2504 191.012L44.1367 191.012L44.1367 201.541L50.2504 201.541ZM47.3118 187.958L4.36445 186.295L4.12797 192.404L47.0753 194.067L47.3118 187.958ZM7.30306 189.35L7.30306 144.74L1.18936 144.74L1.18935 189.35L7.30306 189.35ZM137.354 191.282L83.3236 189.343L83.1043 195.452L137.135 197.392L137.354 191.282ZM80.1571 192.398L80.1571 200.156L86.2708 200.156L86.2708 192.398L80.1571 192.398ZM83.3236 203.211L137.354 201.271L137.135 195.161L83.1043 197.101L83.3236 203.211ZM137.245 201.273L153.869 201.273L153.869 195.159L137.245 195.159L137.245 201.273ZM156.926 198.216L156.926 194.337L150.812 194.337L150.812 198.216L156.926 198.216ZM153.869 191.28L137.245 191.28L137.245 197.394L153.869 197.394L153.869 191.28ZM4.2462 260.709L3.95926 257.665L1.18935 257.926L1.18935 260.709L4.2462 260.709ZM198.202 242.421L201.259 242.421L201.259 239.063L197.915 239.378L198.202 242.421ZM198.202 288.971L198.302 292.026L201.259 291.929L201.259 288.971L198.202 288.971ZM70.7454 293.127L70.7454 296.184L70.7952 296.184L70.845 296.182L70.7454 293.127ZM48.579 293.127L48.579 290.07L45.5221 290.07L45.5221 293.127L48.579 293.127ZM48.579 297.006L45.5221 297.006L45.5221 300.063L48.579 300.063L48.579 297.006ZM70.7454 297.006L70.845 293.951L70.7952 293.949L70.7454 293.949L70.7454 297.006ZM198.202 301.162L201.259 301.162L201.259 298.203L198.302 298.107L198.202 301.162ZM198.202 345.495L197.915 348.538L201.259 348.854L201.259 345.495L198.202 345.495ZM4.2462 327.208L1.18935 327.208L1.18935 329.99L3.95926 330.251L4.2462 327.208ZM4.53315 263.752L198.489 245.465L197.915 239.378L3.95926 257.665L4.53315 263.752ZM195.145 242.421L195.145 288.971L201.259 288.971L201.259 242.421L195.145 242.421ZM198.102 285.915L70.6457 290.072L70.845 296.182L198.302 292.026L198.102 285.915ZM70.7454 290.07L48.579 290.07L48.579 296.184L70.7454 296.184L70.7454 290.07ZM45.5221 293.127L45.5221 297.006L51.6358 297.006L51.6358 293.127L45.5221 293.127ZM48.579 300.063L70.7454 300.063L70.7454 293.949L48.579 293.949L48.579 300.063ZM70.6457 300.061L198.102 304.217L198.302 298.107L70.845 293.951L70.6457 300.061ZM195.145 301.162L195.145 345.495L201.259 345.495L201.259 301.162L195.145 301.162ZM198.489 342.452L4.53314 324.164L3.95926 330.251L197.915 348.538L198.489 342.452ZM7.30306 327.208L7.30306 260.709L1.18935 260.709L1.18935 327.208L7.30306 327.208ZM3.97809 394.339C3.97809 380.409 8.2167 369.07 15.3688 361.247C22.4982 353.449 32.7358 348.907 45.254 348.907L45.254 342.793C31.1725 342.793 19.2438 347.948 10.8567 357.122C2.49234 366.27 -2.13561 379.175 -2.13561 394.339L3.97809 394.339ZM45.254 348.907L157.194 348.907L157.194 342.793L45.254 342.793L45.254 348.907ZM157.194 348.907C169.712 348.907 179.95 353.449 187.079 361.247C194.232 369.07 198.47 380.409 198.47 394.339L204.584 394.339C204.584 379.175 199.956 366.27 191.592 357.122C183.204 347.948 171.276 342.793 157.194 342.793L157.194 348.907ZM198.47 394.339C198.47 408.269 194.232 419.608 187.079 427.431C179.95 435.229 169.712 439.771 157.194 439.771L157.194 445.885C171.276 445.885 183.204 440.729 191.592 431.556C199.956 422.408 204.584 409.503 204.584 394.339L198.47 394.339ZM157.194 439.771L45.254 439.771L45.254 445.885L157.194 445.885L157.194 439.771ZM45.254 439.771C32.7358 439.771 22.4982 435.229 15.3688 427.431C8.2167 419.608 3.97809 408.269 3.97809 394.339L-2.13561 394.339C-2.13561 409.503 2.49234 422.408 10.8567 431.556C19.2438 440.729 31.1725 445.885 45.254 445.885L45.254 439.771ZM38.041 394.339C38.041 396.28 38.7015 398.136 40.0793 399.514C41.457 400.891 43.3125 401.552 45.254 401.552L45.254 395.438C44.7018 395.438 44.4792 395.268 44.4023 395.191C44.3254 395.114 44.1547 394.891 44.1547 394.339L38.041 394.339ZM45.254 401.552L157.194 401.552L157.194 395.438L45.254 395.438L45.254 401.552ZM157.194 401.552C159.136 401.552 160.991 400.891 162.369 399.514C163.747 398.136 164.407 396.28 164.407 394.339L158.294 394.339C158.294 394.891 158.123 395.114 158.046 395.191C157.969 395.268 157.746 395.438 157.194 395.438L157.194 401.552ZM164.407 394.339C164.407 392.397 163.747 390.542 162.369 389.164C160.991 387.786 159.136 387.126 157.194 387.126L157.194 393.24C157.746 393.24 157.969 393.41 158.046 393.487C158.123 393.564 158.294 393.787 158.294 394.339L164.407 394.339ZM157.194 387.126L45.254 387.126L45.254 393.24L157.194 393.24L157.194 387.126ZM45.254 387.126C43.3125 387.126 41.457 387.786 40.0793 389.164C38.7015 390.542 38.041 392.397 38.041 394.339L44.1547 394.339C44.1547 393.787 44.3254 393.564 44.4023 393.487C44.4792 393.41 44.7018 393.24 45.254 393.24L45.254 387.126ZM4.2462 449.233L4.2462 446.176L1.18934 446.176L1.18934 449.233L4.2462 449.233ZM198.202 449.233L201.259 449.233L201.259 446.176L198.202 446.176L198.202 449.233ZM86.2618 536.513L88.3274 534.26L87.2306 533.255L85.7626 533.498L86.2618 536.513ZM4.24619 550.09L1.18934 550.09L1.18934 553.695L4.74543 553.106L4.24619 550.09ZM4.24619 505.757L3.85809 502.725L1.18934 503.067L1.18934 505.757L4.24619 505.757ZM73.5161 496.891L73.9043 499.923L76.573 499.581L76.573 496.891L73.5161 496.891ZM73.5161 493.566L76.573 493.566L76.573 490.509L73.5161 490.509L73.5161 493.566ZM4.24619 493.566L1.18934 493.566L1.18934 496.623L4.24619 496.623L4.24619 493.566ZM158.025 493.566L161.082 493.566L161.082 490.509L158.025 490.509L158.025 493.566ZM110.922 493.566L110.922 490.509L107.865 490.509L107.865 493.566L110.922 493.566ZM4.2462 452.29L198.202 452.29L198.202 446.176L4.2462 446.176L4.2462 452.29ZM195.145 449.233L195.145 501.878L201.259 501.878L201.259 449.233L195.145 449.233ZM195.145 501.878C195.145 514.568 191.318 524.872 184.888 531.967C178.484 539.034 169.288 543.154 158.025 543.154L158.025 549.268C170.869 549.268 181.761 544.522 189.419 536.072C197.051 527.65 201.259 515.788 201.259 501.878L195.145 501.878ZM158.025 543.154L112.307 543.154L112.307 549.268L158.025 549.268L158.025 543.154ZM112.307 543.154C102.512 543.154 94.3912 539.818 88.3274 534.26L84.1962 538.767C91.4323 545.4 101.044 549.268 112.307 549.268L112.307 543.154ZM85.7626 533.498L3.74695 547.074L4.74543 553.106L86.7611 539.529L85.7626 533.498ZM7.30305 550.09L7.30305 505.757L1.18934 505.757L1.18934 550.09L7.30305 550.09ZM4.6343 508.79L73.9043 499.923L73.128 493.859L3.85809 502.725L4.6343 508.79ZM76.573 496.891L76.573 493.566L70.4593 493.566L70.4593 496.891L76.573 496.891ZM73.5161 490.509L4.24619 490.509L4.24619 496.623L73.5161 496.623L73.5161 490.509ZM7.30305 493.566L7.30305 449.233L1.18934 449.233L1.18934 493.566L7.30305 493.566ZM161.082 497.722L161.082 493.566L154.969 493.566L154.969 497.722L161.082 497.722ZM158.025 490.509L110.922 490.509L110.922 496.623L158.025 496.623L158.025 490.509ZM107.865 493.566L107.865 497.722L113.979 497.722L113.979 493.566L107.865 493.566ZM107.865 497.722C107.865 499.664 108.526 501.519 109.903 502.897C111.281 504.275 113.137 504.935 115.078 504.935L115.078 498.821C114.526 498.821 114.303 498.651 114.226 498.574C114.149 498.497 113.979 498.274 113.979 497.722L107.865 497.722ZM115.078 504.935L153.869 504.935L153.869 498.822L115.078 498.821L115.078 504.935ZM153.869 504.935C155.811 504.935 157.666 504.275 159.044 502.897C160.422 501.519 161.082 499.664 161.082 497.722L154.969 497.722C154.969 498.274 154.798 498.497 154.721 498.574C154.644 498.651 154.421 498.822 153.869 498.822L153.869 504.935ZM4.24619 588.855L4.24619 585.799L1.18934 585.799L1.18934 588.855L4.24619 588.855ZM198.202 588.855L201.259 588.855L201.259 585.799L198.202 585.799L198.202 588.855ZM105.657 670.04L108.42 668.731L107.592 666.983L105.657 666.983L105.657 670.04ZM103.995 670.04L103.995 666.983L102.039 666.983L101.219 668.759L103.995 670.04ZM158.025 633.188L161.082 633.188L161.082 630.131L158.025 630.131L158.025 633.188ZM121.451 633.188L121.451 630.131L118.394 630.131L118.394 633.188L121.451 633.188ZM84.0452 633.188L87.102 633.188L87.102 630.131L84.0452 630.131L84.0452 633.188ZM44.4228 633.188L44.4228 630.131L41.3659 630.131L41.3659 633.188L44.4228 633.188ZM4.24619 591.912L198.202 591.912L198.202 585.799L4.24619 585.799L4.24619 591.912ZM195.145 588.855L195.145 642.886L201.259 642.886L201.259 588.855L195.145 588.855ZM195.145 642.886C195.145 655.163 191.455 665.122 185.266 671.974C179.103 678.797 170.254 682.777 159.411 682.777L159.411 688.89C171.842 688.89 182.389 684.28 189.803 676.072C197.191 667.892 201.259 656.377 201.259 642.886L195.145 642.886ZM159.411 682.777L134.197 682.777L134.197 688.89L159.411 688.89L159.411 682.777ZM134.197 682.777C123.831 682.777 112.73 677.829 108.42 668.731L102.895 671.348C108.56 683.308 122.395 688.89 134.197 688.89L134.197 682.777ZM105.657 666.983L103.995 666.983L103.995 673.097L105.657 673.097L105.657 666.983ZM101.219 668.759C96.8695 678.184 85.1608 683.885 74.6245 683.885L74.6245 689.999C86.8086 689.999 101.145 683.508 106.77 671.321L101.219 668.759ZM74.6245 683.885L43.0374 683.885L43.0374 689.999L74.6245 689.999L74.6245 683.885ZM43.0374 683.885C32.1942 683.885 23.3455 679.906 17.1823 673.082C10.9935 666.23 7.30304 656.271 7.30304 643.994L1.18933 643.994C1.18933 657.486 5.25708 669 12.6453 677.18C20.0589 685.388 30.6058 689.999 43.0374 689.999L43.0374 683.885ZM7.30304 643.994L7.30304 588.855L1.18934 588.855L1.18933 643.994L7.30304 643.994ZM161.082 637.344L161.082 633.188L154.969 633.188L154.969 637.344L161.082 637.344ZM158.025 630.131L121.451 630.131L121.451 636.245L158.025 636.245L158.025 630.131ZM118.394 633.188L118.394 637.344L124.508 637.344L124.508 633.188L118.394 633.188ZM118.394 637.344C118.394 639.286 119.055 641.141 120.432 642.519C121.81 643.897 123.666 644.557 125.607 644.557L125.607 638.444C125.055 638.444 124.832 638.273 124.755 638.196C124.679 638.119 124.508 637.897 124.508 637.344L118.394 637.344ZM125.607 644.557L153.869 644.557L153.869 638.444L125.607 638.444L125.607 644.557ZM153.869 644.557C155.811 644.557 157.666 643.897 159.044 642.519C160.422 641.141 161.082 639.286 161.082 637.344L154.969 637.344C154.969 637.897 154.798 638.119 154.721 638.196C154.644 638.273 154.421 638.444 153.869 638.444L153.869 644.557ZM87.102 638.453L87.102 633.188L80.9883 633.188L80.9883 638.453L87.102 638.453ZM84.0452 630.131L44.4228 630.131L44.4228 636.245L84.0452 636.245L84.0452 630.131ZM41.3659 633.188L41.3659 638.453L47.4796 638.453L47.4796 633.188L41.3659 633.188ZM41.3659 638.453C41.3659 640.394 42.0264 642.25 43.4042 643.627C44.782 645.005 46.6374 645.666 48.579 645.666L48.579 639.552C48.0268 639.552 47.8041 639.381 47.7272 639.304C47.6503 639.228 47.4796 639.005 47.4796 638.453L41.3659 638.453ZM48.579 645.666L79.889 645.666L79.889 639.552L48.579 639.552L48.579 645.666ZM79.889 645.666C81.8305 645.666 83.686 645.005 85.0637 643.627C86.4415 642.25 87.102 640.394 87.102 638.453L80.9883 638.453C80.9883 639.005 80.8176 639.228 80.7407 639.304C80.6638 639.381 80.4412 639.552 79.889 639.552L79.889 645.666ZM3.97807 739.336C3.97807 725.406 8.21669 714.067 15.3688 706.244C22.4982 698.446 32.7358 693.904 45.254 693.904L45.254 687.79C31.1725 687.79 19.2438 692.945 10.8567 702.119C2.49232 711.267 -2.13562 724.172 -2.13562 739.336L3.97807 739.336ZM45.254 693.904L157.194 693.904L157.194 687.79L45.254 687.79L45.254 693.904ZM157.194 693.904C169.712 693.904 179.95 698.446 187.079 706.244C194.232 714.067 198.47 725.406 198.47 739.336L204.584 739.336C204.584 724.172 199.956 711.267 191.592 702.119C183.204 692.945 171.276 687.79 157.194 687.79L157.194 693.904ZM198.47 739.336C198.47 753.266 194.232 764.605 187.079 772.428C179.95 780.225 169.712 784.768 157.194 784.768L157.194 790.882C171.276 790.882 183.204 785.726 191.592 776.553C199.956 767.404 204.584 754.499 204.584 739.336L198.47 739.336ZM157.194 784.768L45.254 784.768L45.254 790.882L157.194 790.882L157.194 784.768ZM45.254 784.768C32.7358 784.768 22.4982 780.225 15.3688 772.428C8.21669 764.605 3.97807 753.265 3.97807 739.336L-2.13562 739.336C-2.13562 754.499 2.49232 767.404 10.8567 776.553C19.2438 785.726 31.1725 790.882 45.254 790.882L45.254 784.768ZM38.041 739.336C38.041 741.277 38.7015 743.133 40.0792 744.51C41.457 745.888 43.3125 746.549 45.254 746.549L45.254 740.435C44.7018 740.435 44.4792 740.264 44.4023 740.187C44.3254 740.111 44.1546 739.888 44.1546 739.336L38.041 739.336ZM45.254 746.549L157.194 746.549L157.194 740.435L45.254 740.435L45.254 746.549ZM157.194 746.549C159.136 746.549 160.991 745.888 162.369 744.51C163.747 743.133 164.407 741.277 164.407 739.336L158.294 739.336C158.294 739.888 158.123 740.111 158.046 740.187C157.969 740.264 157.746 740.435 157.194 740.435L157.194 746.549ZM164.407 739.336C164.407 737.394 163.747 735.539 162.369 734.161C160.991 732.783 159.136 732.123 157.194 732.123L157.194 738.236C157.746 738.236 157.969 738.407 158.046 738.484C158.123 738.561 158.294 738.784 158.294 739.336L164.407 739.336ZM157.194 732.123L45.254 732.123L45.254 738.236L157.194 738.236L157.194 732.123ZM45.254 732.123C43.3125 732.123 41.457 732.783 40.0792 734.161C38.7015 735.539 38.041 737.394 38.041 739.336L44.1546 739.336C44.1546 738.784 44.3254 738.561 44.4023 738.484C44.4792 738.407 44.7018 738.236 45.254 738.236L45.254 732.123ZM4.24618 794.23L4.24618 791.173L1.18933 791.173L1.18933 794.23L4.24618 794.23ZM198.202 794.23L201.259 794.23L201.259 791.173L198.202 791.173L198.202 794.23ZM198.202 871.812L198.315 874.867L201.259 874.758L201.259 871.812L198.202 871.812ZM85.7076 875.969L85.7076 879.025L85.7641 879.025L85.8205 879.023L85.7076 875.969ZM48.579 875.969L48.579 872.912L45.5221 872.912L45.5221 875.969L48.579 875.969ZM48.579 879.848L45.5221 879.848L45.5221 882.905L48.579 882.905L48.579 879.848ZM85.7076 879.848L85.8205 876.793L85.7641 876.791L85.7076 876.791L85.7076 879.848ZM198.202 884.004L201.259 884.004L201.259 881.058L198.315 880.949L198.202 884.004ZM198.202 959.924L198.202 962.981L201.259 962.981L201.259 959.924L198.202 959.924ZM4.24617 959.924L1.18932 959.924L1.18932 962.981L4.24617 962.981L4.24617 959.924ZM4.24618 915.591L4.24618 912.534L1.18932 912.534L1.18932 915.591L4.24618 915.591ZM148.328 915.591L148.328 918.648L151.385 918.648L151.385 915.591L148.328 915.591ZM148.328 911.712L151.385 911.712L151.385 908.655L148.328 908.655L148.328 911.712ZM131.703 911.712L131.53 914.764L131.617 914.769L131.703 914.769L131.703 911.712ZM4.24618 904.508L1.18932 904.508L1.18932 907.397L4.07368 907.56L4.24618 904.508ZM4.24618 849.646L4.07368 846.594L1.18932 846.757L1.18932 849.646L4.24618 849.646ZM131.703 842.442L131.703 839.385L131.617 839.385L131.53 839.39L131.703 842.442ZM148.328 842.442L148.328 845.499L151.385 845.499L151.385 842.442L148.328 842.442ZM148.328 838.563L151.385 838.563L151.385 835.506L148.328 835.506L148.328 838.563ZM4.24618 838.563L1.18932 838.563L1.18932 841.62L4.24618 841.62L4.24618 838.563ZM4.24618 797.287L198.202 797.287L198.202 791.173L4.24618 791.173L4.24618 797.287ZM195.145 794.23L195.145 871.812L201.259 871.812L201.259 794.23L195.145 794.23ZM198.089 868.758L85.5948 872.914L85.8205 879.023L198.315 874.867L198.089 868.758ZM85.7076 872.912L48.579 872.912L48.579 879.025L85.7076 879.025L85.7076 872.912ZM45.5221 875.969L45.5221 879.848L51.6358 879.848L51.6358 875.969L45.5221 875.969ZM48.579 882.905L85.7076 882.905L85.7076 876.791L48.579 876.791L48.579 882.905ZM85.5948 882.902L198.089 887.059L198.315 880.949L85.8205 876.793L85.5948 882.902ZM195.145 884.004L195.145 959.924L201.259 959.924L201.259 884.004L195.145 884.004ZM198.202 956.867L4.24617 956.867L4.24617 962.981L198.202 962.981L198.202 956.867ZM7.30303 959.924L7.30303 915.591L1.18932 915.591L1.18932 959.924L7.30303 959.924ZM4.24618 918.648L148.328 918.648L148.328 912.534L4.24618 912.534L4.24618 918.648ZM151.385 915.591L151.385 911.712L145.271 911.712L145.271 915.591L151.385 915.591ZM148.328 908.655L131.703 908.655L131.703 914.769L148.328 914.769L148.328 908.655ZM131.875 908.66L4.41868 901.456L4.07368 907.56L131.53 914.764L131.875 908.66ZM7.30303 904.508L7.30303 849.646L1.18932 849.646L1.18932 904.508L7.30303 904.508ZM4.41868 852.698L131.875 845.494L131.53 839.39L4.07368 846.594L4.41868 852.698ZM131.703 845.499L148.328 845.499L148.328 839.385L131.703 839.385L131.703 845.499ZM151.385 842.442L151.385 838.563L145.271 838.563L145.271 842.442L151.385 842.442ZM148.328 835.506L4.24618 835.506L4.24618 841.62L148.328 841.62L148.328 835.506ZM7.30303 838.563L7.30304 794.23L1.18933 794.23L1.18932 838.563L7.30303 838.563ZM4.24617 967.134L4.24617 964.077L1.18932 964.077L1.18932 967.134L4.24617 967.134ZM198.202 967.134L201.259 967.134L201.259 964.077L198.202 964.077L198.202 967.134ZM105.657 1048.32L108.42 1047.01L107.592 1045.26L105.657 1045.26L105.657 1048.32ZM103.995 1048.32L103.995 1045.26L102.039 1045.26L101.219 1047.04L103.995 1048.32ZM158.025 1011.47L161.082 1011.47L161.082 1008.41L158.025 1008.41L158.025 1011.47ZM121.451 1011.47L121.451 1008.41L118.394 1008.41L118.394 1011.47L121.451 1011.47ZM84.0452 1011.47L87.102 1011.47L87.102 1008.41L84.0452 1008.41L84.0452 1011.47ZM44.4227 1011.47L44.4227 1008.41L41.3659 1008.41L41.3659 1011.47L44.4227 1011.47ZM4.24617 970.191L198.202 970.191L198.202 964.077L4.24617 964.077L4.24617 970.191ZM195.145 967.134L195.145 1021.16L201.259 1021.16L201.259 967.134L195.145 967.134ZM195.145 1021.16C195.145 1033.44 191.455 1043.4 185.266 1050.25C179.103 1057.08 170.254 1061.06 159.411 1061.06L159.411 1067.17C171.842 1067.17 182.389 1062.56 189.803 1054.35C197.191 1046.17 201.259 1034.66 201.259 1021.16L195.145 1021.16ZM159.411 1061.06L134.197 1061.06L134.197 1067.17L159.411 1067.17L159.411 1061.06ZM134.197 1061.06C123.831 1061.06 112.73 1056.11 108.42 1047.01L102.895 1049.63C108.56 1061.59 122.395 1067.17 134.197 1067.17L134.197 1061.06ZM105.657 1045.26L103.995 1045.26L103.995 1051.38L105.657 1051.38L105.657 1045.26ZM101.219 1047.04C96.8695 1056.46 85.1608 1062.16 74.6244 1062.16L74.6244 1068.28C86.8086 1068.28 101.145 1061.79 106.77 1049.6L101.219 1047.04ZM74.6244 1062.16L43.0373 1062.16L43.0373 1068.28L74.6244 1068.28L74.6244 1062.16ZM43.0373 1062.16C32.1942 1062.16 23.3455 1058.18 17.1822 1051.36C10.9935 1044.51 7.30302 1034.55 7.30303 1022.27L1.18932 1022.27C1.18932 1035.76 5.25706 1047.28 12.6452 1055.46C20.0589 1063.67 30.6058 1068.28 43.0373 1068.28L43.0373 1062.16ZM7.30303 1022.27L7.30303 967.134L1.18932 967.134L1.18932 1022.27L7.30303 1022.27ZM161.082 1015.62L161.082 1011.47L154.969 1011.47L154.969 1015.62L161.082 1015.62ZM158.025 1008.41L121.451 1008.41L121.451 1014.52L158.025 1014.52L158.025 1008.41ZM118.394 1011.47L118.394 1015.62L124.508 1015.62L124.508 1011.47L118.394 1011.47ZM118.394 1015.62C118.394 1017.56 119.055 1019.42 120.432 1020.8C121.81 1022.18 123.666 1022.84 125.607 1022.84L125.607 1016.72C125.055 1016.72 124.832 1016.55 124.755 1016.48C124.679 1016.4 124.508 1016.18 124.508 1015.62L118.394 1015.62ZM125.607 1022.84L153.869 1022.84L153.869 1016.72L125.607 1016.72L125.607 1022.84ZM153.869 1022.84C155.811 1022.84 157.666 1022.18 159.044 1020.8C160.422 1019.42 161.082 1017.56 161.082 1015.62L154.969 1015.62C154.969 1016.18 154.798 1016.4 154.721 1016.48C154.644 1016.55 154.421 1016.72 153.869 1016.72L153.869 1022.84ZM87.102 1016.73L87.102 1011.47L80.9883 1011.47L80.9883 1016.73L87.102 1016.73ZM84.0452 1008.41L44.4227 1008.41L44.4227 1014.52L84.0452 1014.52L84.0452 1008.41ZM41.3659 1011.47L41.3659 1016.73L47.4796 1016.73L47.4796 1011.47L41.3659 1011.47ZM41.3659 1016.73C41.3659 1018.67 42.0264 1020.53 43.4042 1021.91C44.782 1023.28 46.6374 1023.94 48.5789 1023.94L48.579 1017.83C48.0267 1017.83 47.8041 1017.66 47.7272 1017.58C47.6503 1017.51 47.4796 1017.28 47.4796 1016.73L41.3659 1016.73ZM48.5789 1023.94L79.889 1023.94L79.889 1017.83L48.579 1017.83L48.5789 1023.94ZM79.889 1023.94C81.8305 1023.94 83.686 1023.28 85.0637 1021.91C86.4415 1020.53 87.102 1018.67 87.102 1016.73L80.9883 1016.73C80.9883 1017.28 80.8176 1017.51 80.7407 1017.58C80.6638 1017.66 80.4412 1017.83 79.889 1017.83L79.889 1023.94Z" fill="#191919" mask="url(#path-1-inside-1_3422_334)"/>
</svg>