<svg width="24" height="24" viewBox="0 0 24 24" fill="none" xmlns="http://www.w3.org/2000/svg">
  <path d="M23.9809 11.6038C23.9809 17.9745 18.6126 23.1388 11.9905 23.1388C5.36829 23.1388 0 17.9745 0 11.6038C0 5.23323 5.36829 0.0688477 11.9905 0.0688477C18.6126 0.0688477 23.9809 5.23323 23.9809 11.6038ZM10.6035 17.7115L19.4997 9.15331C19.8017 8.8627 19.8017 8.39149 19.4997 8.10088L18.4057 7.04845C18.1036 6.7578 17.6138 6.7578 17.3116 7.04845L10.0565 14.028L6.66925 10.7694C6.36717 10.4788 5.87735 10.4788 5.57522 10.7694L4.48124 11.8218C4.17916 12.1124 4.17916 12.5836 4.48124 12.8742L9.50949 17.7115C9.81162 18.0021 10.3014 18.0021 10.6035 17.7115Z" fill="#F9DB4A"/>
</svg>