<svg width="3497" height="154" viewBox="0 0 3497 154" fill="none" xmlns="http://www.w3.org/2000/svg">
  <path d="M3496.94 119.47L3494.26 95.2664L3245.58 122.688L3277.99 85.2736L3198.74 98.9467L3233.27 68.5527L3058.23 85.8012L3058.22 85.6082L2809.53 113.03L2841.95 75.6155L2762.7 89.2885L2797.2 58.8894L2622.16 76.138L2622.14 75.9449L2373.46 103.367L2405.87 65.9522L2326.62 79.6253L2361.15 49.2312L2186.12 66.4536L2186.07 66.2817L1937.41 93.7086L1969.83 56.294L1890.57 69.9671L1925.08 39.568L1750.04 56.7904L1750.02 56.6235L1501.34 84.0454L1533.75 46.6308L1454.5 60.3038L1489.01 29.8787L1313.97 47.1272L1313.95 46.9603L1065.27 74.3822L1097.68 36.9675L1018.43 50.6406L1052.96 20.2204L877.924 37.469L877.907 37.276L629.218 64.724L661.632 27.3093L582.381 40.9824L616.891 10.5572L441.851 27.8057L441.834 27.6128L193.15 55.0346L225.564 17.62L146.313 31.2931L180.817 0.894032L0.749888 18.6371L3.12795 42.8635L108.107 32.522L65.6666 69.9288L162.553 53.2038L134.083 86.0395L439.195 52.4172L439.201 52.5267L544.18 42.1853L501.714 79.5871L598.6 62.862L570.157 95.7028L875.242 62.0754L875.274 62.19L980.227 51.8434L937.787 89.2503L1034.67 72.5252L1006.2 105.387L1311.32 71.7386L1311.32 71.8482L1416.3 61.5067L1373.86 98.9135L1470.72 82.1834L1442.27 115.05L1747.36 81.3968L1747.39 81.5114L1852.37 71.1699L1809.91 108.572L1906.79 91.8728L1878.34 124.714L2183.44 91.0601L2183.44 91.1696L2288.42 80.8281L2245.98 118.235L2342.86 101.536L2314.39 134.372L2619.51 100.723L2619.51 100.859L2724.49 90.5175L2682.03 127.893L2778.91 111.194L2750.47 144.035L3055.56 110.381L3055.58 110.522L3160.56 100.181L3118.1 137.556L3214.98 120.857L3186.51 153.693L3496.94 119.47Z" fill="white"/>
</svg>