<svg width="1440" height="153" viewBox="0 0 1440 153" fill="none" xmlns="http://www.w3.org/2000/svg">
  <path d="M3315.94 118.601L3313.26 94.3972L3064.58 121.819L3096.99 84.4045L3017.74 98.0776L3052.27 67.6836L2877.23 84.9321L2877.22 84.7391L2628.53 112.161L2660.95 74.7463L2581.69 88.4194L2616.2 58.0203L2441.16 75.2688L2441.14 75.0758L2192.46 102.498L2224.87 65.083L2145.62 78.7561L2180.15 48.3621L2005.12 65.5845L2005.07 65.4126L1756.41 92.8395L1788.83 55.4249L1709.57 69.098L1744.08 38.6989L1569.04 55.9212L1569.02 55.7544L1320.34 83.1762L1352.75 45.7616L1273.5 59.4347L1308.01 29.0095L1132.97 46.258L1132.95 46.0912L884.265 73.513L916.679 36.0984L837.428 49.7715L871.963 19.3513L696.924 36.5998L696.907 36.4068L448.218 63.8548L480.632 26.4402L401.381 40.1133L435.89 9.68809L260.85 26.9366L260.833 26.7436L12.1495 54.1654L44.5637 16.7508L-34.6873 30.4239L-0.183112 0.024891L-180.251 17.768L-177.873 41.9944L-72.8936 31.6529L-115.334 69.0597L-18.4478 52.3347L-46.9171 85.1704L258.195 51.548L258.201 51.6576L363.18 41.3161L320.713 78.7179L417.599 61.9929L389.156 94.8336L694.242 61.2062L694.274 61.3208L799.227 50.9743L756.786 88.3812L853.672 71.6561L825.198 104.518L1130.31 70.8695L1130.32 70.9791L1235.3 60.6376L1192.86 98.0444L1289.72 81.3143L1261.27 114.181L1566.36 80.5277L1566.39 80.6423L1671.37 70.3008L1628.91 107.703L1725.79 91.0037L1697.34 123.844L2002.44 90.1909L2002.44 90.3005L2107.42 79.959L2064.98 117.366L2161.86 100.667L2133.39 133.503L2438.51 99.8541L2438.51 99.9899L2543.49 89.6484L2501.03 127.024L2597.91 110.325L2569.46 143.166L2874.56 109.512L2874.58 109.653L2979.56 99.3115L2937.1 136.687L3033.98 119.988L3005.51 152.824L3315.94 118.601Z" fill="white"/>
</svg>