<svg width="441" height="1089" viewBox="0 0 441 1089" fill="none" xmlns="http://www.w3.org/2000/svg">
  <path opacity="0.1" d="M351.193 322.345L221.227 364.029L440.024 -0.000119118L190.311 84.1147L-92.6414 553.593L34.5475 512.591L-64.6429 677.153L66.4015 634.651L-207.364 1088.93L46.1649 1006.03L384.825 444.085L251.807 487.24L351.218 322.274L351.193 322.345ZM223.497 371.342L334.161 335.855L245.361 483.216L238.527 494.523L113.668 535.035L209.663 375.74L223.492 371.309L223.497 371.342ZM214.776 359.972L207.61 371.868L83.0827 411.791L296.735 56.356L422.773 13.9144L214.776 359.972ZM254.086 494.621L367.677 457.747L41.1422 999.604L-83.9413 1040.49L242.818 498.259L254.086 494.621Z" fill="white"/>
</svg>