<svg width="1465" height="675" viewBox="0 0 1465 675" fill="none" xmlns="http://www.w3.org/2000/svg">
<path d="M1568.47 453.26L-160.471 78.941L-198.83 256.115L1530.11 630.435L1568.47 453.26Z" fill="#191919" stroke="white" stroke-width="10"/>
<path d="M9.03998 264.135C-4.98002 261.163 -12.515 250.636 -9.79802 237.818L-6.91101 224.199L14.452 228.728L11.565 242.347C11.311 243.549 11.942 244.519 13.144 244.774C14.345 245.029 15.316 244.398 15.571 243.196L17.75 232.915C19.59 224.236 -5.03101 216.645 -0.502013 195.282L1.90399 183.932C4.62099 171.114 15.645 164.522 29.531 167.465C43.418 170.409 50.819 180.907 48.102 193.725L45.555 205.742L24.191 201.214L26.795 188.93C27.022 187.862 26.496 187.052 25.427 186.826C24.359 186.6 23.55 187.126 23.324 188.194L21.427 197.14C19.588 205.819 44.208 213.41 39.68 234.773L36.934 247.724C34.217 260.543 23.059 267.107 9.03998 264.135ZM60.753 275.097C46.733 272.125 39.198 261.598 41.915 248.78L57.539 175.077L78.902 179.605L63.279 253.309C63.024 254.511 63.655 255.482 64.857 255.736C66.059 255.991 67.03 255.36 67.284 254.158L82.908 180.454L104.271 184.983L88.648 258.687C85.931 271.505 74.773 278.069 60.753 275.097ZM90.343 279.695L110.156 186.23L134.857 191.466C148.076 194.268 155.19 204.148 152.642 216.165L147.831 238.863C145.284 250.88 134.773 257.023 121.554 254.221L118.216 253.514L111.707 284.224L90.343 279.695ZM129.418 210.544L127.415 210.119L122.32 234.153L124.323 234.578C125.525 234.832 126.496 234.201 126.751 232.999L130.996 212.971C131.251 211.77 130.619 210.799 129.418 210.544ZM142.041 290.654L161.853 197.189L195.234 204.265L191.13 223.625L179.113 221.078L175.433 238.436L186.115 240.7L182.152 259.393L171.471 257.129L167.508 275.822L179.525 278.369L175.421 297.73L142.041 290.654ZM180.569 298.821L200.381 205.356L225.75 210.734C238.568 213.451 245.472 223.006 243.01 234.623L238.34 256.654C237.264 261.728 234.623 265.632 231.006 268.214L229.171 309.123L207.807 304.595L210.61 270.309L209.008 269.969L201.932 303.349L180.569 298.821ZM219.644 229.67L217.641 229.245L212.829 251.944L214.832 252.368C216.034 252.623 217.005 251.992 217.259 250.79L221.222 232.097C221.477 230.895 220.845 229.924 219.644 229.67ZM233.179 309.973L252.992 216.508L274.355 221.037L266.572 257.755L270.577 258.604L278.361 221.886L299.724 226.414L279.912 319.879L258.548 315.351L266.615 277.297L262.609 276.448L254.543 314.502L233.179 309.973ZM308.81 327.679C294.79 324.707 287.255 314.181 289.973 301.363L305.596 227.659L326.959 232.188L311.336 305.891C311.081 307.093 311.712 308.064 312.914 308.319C314.116 308.573 315.087 307.942 315.342 306.74L330.965 233.037L352.328 237.565L336.705 311.269C333.988 324.087 322.83 330.651 308.81 327.679ZM338.4 332.277L358.213 238.813L395.599 246.738L386.11 301.372L382.318 319.264L384.187 319.66L387.98 301.768L401.474 247.983L438.058 255.738L418.246 349.203L396.883 344.674L411.6 275.243L409.731 274.847L408.033 282.858L391.542 343.542L365.105 337.938L374.653 275.783L376.351 267.771L374.481 267.375L359.764 336.806L338.4 332.277ZM424.391 350.505L444.203 257.041L466.769 261.824L465.785 291.473L464.408 306.528L466.411 306.953L467.788 291.898L473.845 263.324L495.208 267.853L475.396 361.317L452.831 356.534L453.814 326.885L455.192 311.83L453.189 311.405L451.811 326.461L445.754 355.034L424.391 350.505ZM523.67 373.225C509.65 370.253 502.115 359.726 504.832 346.908L507.719 333.289L529.082 337.817L526.195 351.437C525.941 352.638 526.572 353.609 527.774 353.864C528.975 354.119 529.946 353.487 530.201 352.286L532.38 342.005C534.22 333.326 509.599 325.735 514.128 304.371L516.534 293.022C519.251 280.204 530.275 273.612 544.161 276.555C558.047 279.499 565.449 289.997 562.732 302.815L560.185 314.832L538.821 310.303L541.425 298.02C541.652 296.951 541.125 296.142 540.057 295.916C538.989 295.689 538.18 296.215 537.954 297.284L536.057 306.23C534.218 314.908 558.838 322.499 554.31 343.863L551.564 356.814C548.847 369.632 537.689 376.196 523.67 373.225ZM575.383 384.187C561.363 381.215 553.828 370.688 556.545 357.87L572.169 284.166L593.532 288.695L577.909 362.399C577.654 363.6 578.285 364.571 579.487 364.826C580.689 365.081 581.66 364.449 581.914 363.248L597.538 289.544L618.901 294.073L603.278 367.776C600.561 380.594 589.403 387.158 575.383 384.187ZM604.973 388.785L624.785 295.32L649.487 300.556C662.705 303.358 669.82 313.237 667.272 325.254L662.461 347.953C659.913 359.97 649.403 366.113 636.184 363.311L632.846 362.603L626.336 393.313L604.973 388.785ZM644.048 319.634L642.045 319.209L636.95 343.243L638.953 343.667C640.155 343.922 641.126 343.291 641.38 342.089L645.626 322.061C645.881 320.859 645.249 319.888 644.048 319.634ZM656.671 399.743L676.483 306.279L709.863 313.355L705.759 332.715L693.743 330.168L690.063 347.526L700.745 349.79L696.782 368.483L686.101 366.219L682.138 384.911L694.155 387.459L690.051 406.819L656.671 399.743ZM695.199 407.911L715.011 314.446L740.38 319.823C753.198 322.541 760.102 332.096 757.64 343.713L752.97 365.744C751.894 370.817 749.253 374.722 745.636 377.304L743.801 418.213L722.437 413.684L725.24 379.398L723.638 379.059L716.562 412.439L695.199 407.911ZM734.273 338.759L732.271 338.335L727.459 361.033L729.462 361.458C730.664 361.713 731.635 361.081 731.889 359.88L735.852 341.187C736.106 339.985 735.475 339.014 734.273 338.759ZM747.809 419.063L767.622 325.598L788.985 330.127L781.202 366.845L785.207 367.694L792.99 330.976L814.35 335.504L794.54 428.969L773.178 424.44L781.245 386.387L777.239 385.538L769.173 423.591L747.809 419.063ZM823.44 436.769C809.42 433.797 801.89 423.271 804.6 410.453L820.23 336.749L841.59 341.277L825.97 414.981C825.71 416.183 826.34 417.154 827.54 417.408C828.75 417.663 829.72 417.032 829.97 415.83L845.59 342.127L866.96 346.655L851.33 420.359C848.62 433.177 837.46 439.741 823.44 436.769ZM853.03 441.367L872.84 347.902L910.23 355.827L900.74 410.461L896.95 428.353L898.82 428.75L902.61 410.858L916.1 357.073L952.69 364.828L932.88 458.293L911.51 453.764L926.23 384.333L924.36 383.937L922.66 391.948L906.17 452.632L879.73 447.028L889.28 384.872L890.98 376.861L889.11 376.465L874.39 445.896L853.03 441.367ZM939.02 459.595L958.83 366.13L981.4 370.914L980.42 400.563L979.04 415.618L981.04 416.043L982.42 400.987L988.47 372.414L1009.84 376.942L990.03 470.407L967.46 465.624L968.44 435.975L969.82 420.92L967.82 420.495L966.44 435.55L960.38 464.124L939.02 459.595ZM1038.3 482.314C1024.28 479.342 1016.74 468.816 1019.46 455.998L1022.35 442.379L1043.71 446.907L1040.83 460.526C1040.57 461.728 1041.2 462.699 1042.4 462.954C1043.61 463.208 1044.58 462.577 1044.83 461.375L1047.01 451.094C1048.85 442.415 1024.23 434.825 1028.76 413.461L1031.16 402.112C1033.88 389.294 1044.9 382.701 1058.79 385.645C1072.68 388.589 1080.08 399.087 1077.36 411.905L1074.81 423.922L1053.45 419.393L1056.06 407.109C1056.28 406.041 1055.76 405.232 1054.69 405.006C1053.62 404.779 1052.81 405.305 1052.58 406.373L1050.69 415.319C1048.85 423.998 1073.47 431.589 1068.94 452.952L1066.19 465.904C1063.48 478.722 1052.32 485.286 1038.3 482.314ZM1090.01 493.276C1075.99 490.304 1068.46 479.778 1071.18 466.96L1086.8 393.256L1108.16 397.785L1092.54 471.488C1092.28 472.69 1092.92 473.661 1094.12 473.916C1095.32 474.17 1096.29 473.539 1096.54 472.337L1112.17 398.634L1133.53 403.162L1117.91 476.866C1115.19 489.684 1104.03 496.248 1090.01 493.276ZM1119.6 497.874L1139.42 404.41L1164.12 409.646C1177.34 412.448 1184.45 422.327 1181.9 434.344L1177.09 457.043C1174.54 469.06 1164.03 475.203 1150.81 472.401L1147.48 471.693L1140.97 502.403L1119.6 497.874ZM1158.68 428.723L1156.67 428.299L1151.58 452.333L1153.58 452.757C1154.78 453.012 1155.76 452.381 1156.01 451.179L1160.26 431.151C1160.51 429.949 1159.88 428.978 1158.68 428.723ZM1171.3 508.833L1191.11 415.368L1224.49 422.444L1220.39 441.805L1208.37 439.258L1204.69 456.615L1215.37 458.88L1211.41 477.573L1200.73 475.308L1196.77 494.001L1208.78 496.549L1204.68 515.909L1171.3 508.833ZM1209.83 517L1229.64 423.536L1255.01 428.913C1267.83 431.63 1274.73 441.186 1272.27 452.802L1267.6 474.833C1266.52 479.907 1263.88 483.812 1260.27 486.394L1258.43 527.303L1237.07 522.774L1239.87 488.488L1238.27 488.149L1231.19 521.529L1209.83 517ZM1248.9 447.849L1246.9 447.425L1242.09 470.123L1244.09 470.548C1245.29 470.803 1246.26 470.171 1246.52 468.97L1250.48 450.277C1250.74 449.075 1250.11 448.104 1248.9 447.849ZM1262.44 528.153L1282.25 434.688L1303.62 439.216L1295.83 475.935L1299.84 476.784L1307.62 440.065L1328.98 444.594L1309.17 538.059L1287.81 533.53L1295.87 495.477L1291.87 494.628L1283.8 532.681L1262.44 528.153ZM1338.07 545.859C1324.05 542.887 1316.52 532.36 1319.23 519.542L1334.86 445.839L1356.22 450.367L1340.6 524.071C1340.34 525.273 1340.97 526.243 1342.17 526.498C1343.38 526.753 1344.35 526.122 1344.6 524.92L1360.22 451.216L1381.59 455.745L1365.96 529.448C1363.25 542.266 1352.09 548.831 1338.07 545.859ZM1367.66 550.457L1387.47 456.992L1424.86 464.917L1415.37 519.551L1411.58 537.443L1413.45 537.839L1417.24 519.947L1430.73 466.162L1467.32 473.918L1447.51 567.382L1426.14 562.854L1440.86 493.423L1438.99 493.027L1437.29 501.038L1420.8 561.722L1394.36 556.118L1403.91 493.962L1405.61 485.951L1403.74 485.554L1389.02 554.985L1367.66 550.457ZM1453.65 568.685L1473.46 475.22L1496.03 480.003L1495.05 509.653L1493.67 524.708L1495.67 525.132L1497.05 510.077L1503.1 481.504L1524.47 486.032L1504.66 579.497L1482.09 574.714L1483.07 545.065L1484.45 530.009L1482.45 529.585L1481.07 544.64L1475.01 573.214L1453.65 568.685ZM1552.93 591.404C1538.91 588.432 1531.37 577.906 1534.09 565.088L1536.98 551.468L1558.34 555.997L1555.46 569.616C1555.2 570.818 1555.83 571.789 1557.03 572.043C1558.24 572.298 1559.21 571.667 1559.46 570.465L1561.64 560.184C1563.48 551.505 1538.86 543.914 1543.39 522.551L1545.79 511.202C1548.51 498.384 1559.53 491.791 1573.42 494.735C1587.31 497.678 1594.71 508.177 1591.99 520.995L1589.44 533.012L1568.08 528.483L1570.68 516.199C1570.91 515.131 1570.39 514.322 1569.32 514.095C1568.25 513.869 1567.44 514.395 1567.21 515.463L1565.32 524.409C1563.48 533.088 1588.1 540.679 1583.57 562.042L1580.82 574.994C1578.11 587.812 1566.95 594.376 1552.93 591.404ZM1604.64 602.366C1590.62 599.394 1583.09 588.868 1585.81 576.05L1601.43 502.346L1622.79 506.874L1607.17 580.578C1606.91 581.78 1607.55 582.751 1608.75 583.006C1609.95 583.26 1610.92 582.629 1611.17 581.427L1626.8 507.724L1648.16 512.252L1632.54 585.956C1629.82 598.774 1618.66 605.338 1604.64 602.366ZM1634.23 606.964L1654.05 513.499L1678.75 518.736C1691.97 521.538 1699.08 531.417 1696.53 543.434L1691.72 566.132C1689.17 578.149 1678.66 584.293 1665.44 581.491L1662.11 580.783L1655.6 611.493L1634.23 606.964ZM1673.31 537.813L1671.3 537.389L1666.21 561.422L1668.21 561.847C1669.41 562.102 1670.39 561.47 1670.64 560.269L1674.89 540.24C1675.14 539.039 1674.51 538.068 1673.31 537.813ZM1685.93 617.923L1705.74 524.458L1739.12 531.534L1735.02 550.895L1723 548.347L1719.32 565.705L1730 567.969L1726.04 586.662L1715.36 584.398L1711.4 603.091L1723.41 605.638L1719.31 624.999L1685.93 617.923ZM1724.46 626.09L1744.27 532.625L1769.64 538.003C1782.46 540.72 1789.36 550.276 1786.9 561.892L1782.23 583.923C1781.15 588.997 1778.51 592.902 1774.9 595.483L1773.06 636.392L1751.7 631.864L1754.5 597.578L1752.9 597.238L1745.82 630.619L1724.46 626.09ZM1763.53 556.939L1761.53 556.514L1756.72 579.213L1758.72 579.638C1759.92 579.892 1760.89 579.261 1761.15 578.059L1765.11 559.366C1765.37 558.165 1764.73 557.194 1763.53 556.939ZM1777.07 637.242L1796.88 543.777L1818.24 548.306L1810.46 585.024L1814.47 585.873L1822.25 549.155L1843.61 553.684L1823.8 647.148L1802.44 642.62L1810.5 604.566L1806.5 603.717L1798.43 641.771L1777.07 637.242ZM1852.7 654.948C1838.68 651.977 1831.15 641.45 1833.86 628.632L1849.49 554.928L1870.85 559.457L1855.23 633.161C1854.97 634.362 1855.6 635.333 1856.8 635.588C1858.01 635.843 1858.98 635.211 1859.23 634.01L1874.85 560.306L1896.22 564.835L1880.59 638.538C1877.88 651.356 1866.72 657.92 1852.7 654.948ZM1882.29 659.547L1902.1 566.082L1939.49 574.007L1930 628.641L1926.21 646.533L1928.08 646.929L1931.87 629.037L1945.36 575.252L1981.95 583.007L1962.14 676.472L1940.77 671.944L1955.49 602.513L1953.62 602.116L1951.92 610.128L1935.43 670.811L1908.99 665.207L1918.54 603.052L1920.24 595.041L1918.37 594.644L1903.65 664.075L1882.29 659.547ZM1968.28 677.775L1988.09 584.31L2010.66 589.093L2009.68 618.742L2008.3 633.798L2010.3 634.222L2011.68 619.167L2017.73 590.593L2039.1 595.122L2019.29 688.587L1996.72 683.803L1997.7 654.154L1999.08 639.099L1997.08 638.675L1995.7 653.73L1989.64 682.303L1968.28 677.775Z" fill="white"/>
<path d="M1511.66 23.2507L-191.619 500.953L-142.666 675.497L1560.61 197.795L1511.66 23.2507Z" fill="#191919" stroke="white" stroke-width="10"/>
<path d="M44.822 585.373C31.04 589.303 19.457 583.522 15.864 570.921L12.047 557.533L33.048 551.545L36.865 564.933C37.202 566.114 38.214 566.677 39.395 566.341C40.577 566.004 41.14 564.992 40.803 563.81L37.921 553.704C35.488 545.172 10.176 549.977 4.188 528.976L1.00701 517.819C-2.58599 505.218 4.075 494.235 17.726 490.343C31.377 486.451 42.829 492.269 46.421 504.869L49.79 516.683L28.789 522.671L25.345 510.595C25.046 509.545 24.203 509.076 23.153 509.375C22.103 509.675 21.633 510.518 21.933 511.568L24.44 520.362C26.873 528.894 52.185 524.089 58.174 545.09L61.804 557.822C65.397 570.423 58.604 581.443 44.822 585.373ZM95.658 570.878C81.876 574.807 70.293 569.027 66.7 556.426L46.041 483.973L67.042 477.984L87.701 550.438C88.038 551.619 89.05 552.182 90.232 551.846C91.413 551.509 91.976 550.497 91.639 549.315L70.98 476.862L91.981 470.874L112.64 543.327C116.233 555.928 109.44 566.948 95.658 570.878ZM123.964 561.104L97.766 469.224L122.048 462.301C135.043 458.595 145.951 464.001 149.319 475.814L155.682 498.127C159.05 509.941 152.633 520.286 139.638 523.991L136.357 524.927L144.965 555.116L123.964 561.104ZM126.162 481.707L124.193 482.268L130.93 505.895L132.899 505.333C134.08 504.996 134.643 503.984 134.306 502.803L128.693 483.114C128.356 481.933 127.344 481.37 126.162 481.707ZM174.785 546.613L148.587 454.734L181.401 445.377L186.827 464.409L175.014 467.778L179.88 484.841L190.38 481.847L195.62 500.223L185.119 503.217L190.359 521.593L202.172 518.225L207.599 537.257L174.785 546.613ZM212.659 535.814L186.461 443.934L211.4 436.823C224.001 433.231 234.572 438.448 237.828 449.868L244.003 471.525C245.425 476.513 244.917 481.199 242.927 485.173L260.437 522.191L239.436 528.179L225.879 496.563L224.304 497.012L233.66 529.826L212.659 535.814ZM214.858 456.417L212.889 456.978L219.251 479.292L221.22 478.731C222.402 478.394 222.965 477.382 222.628 476.2L217.388 457.824C217.051 456.643 216.039 456.08 214.858 456.417ZM264.377 521.067L238.18 429.188L259.181 423.2L269.473 459.295L273.41 458.172L263.118 422.077L284.119 416.089L310.317 507.968L289.316 513.956L278.65 476.548L274.712 477.671L285.378 515.079L264.377 521.067ZM339.508 501.348C325.726 505.278 314.143 499.497 310.55 486.897L289.892 414.443L310.893 408.455L331.551 480.908C331.888 482.09 332.9 482.653 334.082 482.316C335.263 481.979 335.826 480.967 335.489 479.786L314.83 407.332L335.831 401.344L356.49 473.798C360.083 486.398 353.29 497.418 339.508 501.348ZM367.814 491.574L341.616 399.695L378.368 389.215L395.531 441.944L400.546 459.533L402.384 459.009L397.369 441.42L384.143 387.569L420.107 377.314L446.305 469.194L425.304 475.182L405.843 406.928L404.005 407.452L406.251 415.328L420.054 476.679L394.065 484.089L373.437 424.684L371.191 416.809L369.354 417.333L388.815 485.586L367.814 491.574ZM452.346 467.471L426.148 375.592L448.331 369.267L461.327 395.934L467.151 409.885L469.119 409.324L463.296 395.372L455.287 367.283L476.288 361.295L502.486 453.175L480.304 459.5L467.307 432.833L461.484 418.881L459.515 419.443L465.338 433.394L473.347 461.483L452.346 467.471ZM550.724 441.124C536.942 445.053 525.359 439.273 521.766 426.672L517.948 413.284L538.95 407.296L542.767 420.684C543.104 421.865 544.116 422.428 545.297 422.092C546.478 421.755 547.041 420.743 546.705 419.561L543.823 409.455C541.39 400.923 516.078 405.728 510.09 384.726L506.908 373.57C503.316 360.969 509.977 349.986 523.628 346.094C537.278 342.202 548.73 348.02 552.323 360.62L555.692 372.434L534.691 378.422L531.247 366.346C530.948 365.296 530.105 364.827 529.054 365.126C528.004 365.426 527.535 366.269 527.835 367.319L530.342 376.113C532.775 384.645 558.087 379.84 564.075 400.841L567.706 413.573C571.299 426.174 564.506 437.194 550.724 441.124ZM601.56 426.629C587.778 430.558 576.195 424.778 572.602 412.177L551.943 339.723L572.944 333.735L593.603 406.189C593.94 407.37 594.952 407.933 596.133 407.596C597.315 407.26 597.878 406.248 597.541 405.066L576.882 332.613L597.883 326.625L618.542 399.078C622.135 411.679 615.342 422.699 601.56 426.629ZM629.865 416.855L603.668 324.975L627.95 318.051C640.944 314.346 651.853 319.752 655.221 331.565L661.584 353.878C664.952 365.691 658.534 376.037 645.54 379.742L642.259 380.678L650.867 410.867L629.865 416.855ZM632.064 337.458L630.095 338.019L636.832 361.645L638.801 361.084C639.982 360.747 640.545 359.735 640.208 358.554L634.594 338.865C634.258 337.684 633.246 337.121 632.064 337.458ZM680.686 402.364L654.489 310.484L687.303 301.128L692.729 320.16L680.916 323.529L685.782 340.592L696.282 337.598L701.522 355.974L691.021 358.968L696.261 377.344L708.074 373.976L713.501 393.008L680.686 402.364ZM718.561 391.565L692.363 299.685L717.302 292.574C729.903 288.981 740.474 294.199 743.73 305.618L749.905 327.276C751.327 332.264 750.818 336.95 748.829 340.924L766.338 377.942L745.337 383.93L731.781 352.313L730.206 352.763L739.562 385.577L718.561 391.565ZM720.76 312.168L718.791 312.729L725.153 335.043L727.122 334.482C728.303 334.145 728.866 333.133 728.53 331.951L723.29 313.575C722.953 312.394 721.941 311.831 720.76 312.168ZM770.279 376.818L744.081 284.939L765.082 278.951L775.374 315.046L779.312 313.923L769.02 277.828L790.021 271.84L816.22 363.719L795.22 369.707L784.552 332.299L780.614 333.422L791.28 370.83L770.279 376.818ZM845.41 357.099C831.63 361.029 820.05 355.248 816.45 342.648L795.79 270.194L816.79 264.206L837.45 336.659C837.79 337.841 838.8 338.404 839.98 338.067C841.16 337.73 841.73 336.718 841.39 335.537L820.73 263.083L841.73 257.095L862.39 329.549C865.98 342.149 859.19 353.169 845.41 357.099ZM873.72 347.325L847.52 255.446L884.27 244.966L901.43 297.695L906.45 315.284L908.29 314.76L903.27 297.171L890.04 243.32L926.01 233.065L952.21 324.945L931.21 330.933L911.74 262.679L909.91 263.203L912.15 271.079L925.96 332.43L899.97 339.84L879.34 280.435L877.09 272.56L875.26 273.084L894.72 341.337L873.72 347.325ZM958.25 323.222L932.05 231.343L954.23 225.018L967.23 251.685L973.05 265.636L975.02 265.075L969.2 251.123L961.19 223.034L982.19 217.046L1008.39 308.926L986.21 315.251L973.21 288.584L967.39 274.632L965.42 275.194L971.24 289.145L979.25 317.234L958.25 323.222ZM1056.63 296.875C1042.84 300.804 1031.26 295.024 1027.67 282.423L1023.85 269.035L1044.85 263.047L1048.67 276.435C1049.01 277.616 1050.02 278.179 1051.2 277.843C1052.38 277.506 1052.94 276.494 1052.61 275.312L1049.72 265.206C1047.29 256.674 1021.98 261.478 1015.99 240.477L1012.81 229.321C1009.22 216.72 1015.88 205.737 1029.53 201.845C1043.18 197.953 1054.63 203.771 1058.23 216.371L1061.59 228.184L1040.59 234.173L1037.15 222.097C1036.85 221.047 1036.01 220.578 1034.96 220.877C1033.91 221.177 1033.44 222.02 1033.74 223.07L1036.24 231.864C1038.68 240.396 1063.99 235.591 1069.98 256.592L1073.61 269.324C1077.2 281.925 1070.41 292.945 1056.63 296.875ZM1107.46 282.38C1093.68 286.309 1082.1 280.529 1078.5 267.928L1057.85 195.474L1078.85 189.486L1099.51 261.94C1099.84 263.121 1100.85 263.684 1102.04 263.347C1103.22 263.011 1103.78 261.999 1103.44 260.817L1082.78 188.364L1103.78 182.376L1124.44 254.829C1128.04 267.43 1121.24 278.45 1107.46 282.38ZM1135.77 272.606L1109.57 180.726L1133.85 173.802C1146.85 170.097 1157.75 175.503 1161.12 187.316L1167.49 209.629C1170.85 221.442 1164.44 231.788 1151.44 235.493L1148.16 236.429L1156.77 266.618L1135.77 272.606ZM1137.97 193.209L1136 193.77L1142.73 217.396L1144.7 216.835C1145.88 216.498 1146.45 215.486 1146.11 214.305L1140.5 194.616C1140.16 193.435 1139.15 192.872 1137.97 193.209ZM1186.59 258.115L1160.39 166.235L1193.2 156.879L1198.63 175.911L1186.82 179.28L1191.68 196.343L1202.18 193.349L1207.42 211.725L1196.92 214.719L1202.16 233.095L1213.98 229.726L1219.4 248.759L1186.59 258.115ZM1224.46 247.316L1198.27 155.436L1223.2 148.325C1235.8 144.732 1246.38 149.95 1249.63 161.369L1255.81 183.027C1257.23 188.014 1256.72 192.701 1254.73 196.675L1272.24 233.693L1251.24 239.681L1237.68 208.064L1236.11 208.514L1245.46 241.328L1224.46 247.316ZM1226.66 167.919L1224.69 168.48L1231.06 190.794L1233.02 190.232C1234.21 189.896 1234.77 188.884 1234.43 187.702L1229.19 169.326C1228.86 168.145 1227.84 167.582 1226.66 167.919ZM1276.18 232.569L1249.98 140.69L1270.98 134.702L1281.28 170.797L1285.21 169.674L1274.92 133.579L1295.92 127.591L1322.12 219.47L1301.12 225.458L1290.45 188.05L1286.52 189.173L1297.18 226.581L1276.18 232.569ZM1351.31 212.85C1337.53 216.78 1325.95 210.999 1322.35 198.398L1301.7 125.945L1322.7 119.957L1343.36 192.41C1343.69 193.592 1344.7 194.155 1345.89 193.818C1347.07 193.481 1347.63 192.469 1347.29 191.288L1326.63 118.834L1347.64 112.846L1368.29 185.3C1371.89 197.9 1365.09 208.92 1351.31 212.85ZM1379.62 203.076L1353.42 111.197L1390.17 100.717L1407.34 153.446L1412.35 171.035L1414.19 170.511L1409.17 152.922L1395.95 99.071L1431.91 88.816L1458.11 180.696L1437.11 186.684L1417.65 118.43L1415.81 118.954L1418.05 126.83L1431.86 188.181L1405.87 195.591L1385.24 136.186L1382.99 128.311L1381.16 128.835L1400.62 197.088L1379.62 203.076ZM1464.15 178.973L1437.95 87.094L1460.13 80.769L1473.13 107.435L1478.95 121.387L1480.92 120.826L1475.1 106.874L1467.09 78.785L1488.09 72.797L1514.29 164.677L1492.11 171.002L1479.11 144.335L1473.29 130.383L1471.32 130.945L1477.14 144.896L1485.15 172.985L1464.15 178.973ZM1562.53 152.626C1548.75 156.555 1537.16 150.775 1533.57 138.174L1529.75 124.786L1550.75 118.798L1554.57 132.186C1554.91 133.367 1555.92 133.93 1557.1 133.594C1558.28 133.257 1558.85 132.245 1558.51 131.063L1555.63 120.957C1553.19 112.425 1527.88 117.229 1521.89 96.228L1518.71 85.072C1515.12 72.471 1521.78 61.488 1535.43 57.596C1549.08 53.704 1560.53 59.522 1564.13 72.122L1567.5 83.935L1546.49 89.924L1543.05 77.848C1542.75 76.798 1541.91 76.329 1540.86 76.628C1539.81 76.928 1539.34 77.771 1539.64 78.821L1542.15 87.615C1544.58 96.147 1569.89 91.342 1575.88 112.343L1579.51 125.075C1583.1 137.676 1576.31 148.696 1562.53 152.626ZM1613.36 138.131C1599.58 142.06 1588 136.28 1584.41 123.679L1563.75 51.225L1584.75 45.237L1605.41 117.691C1605.74 118.872 1606.76 119.435 1607.94 119.098C1609.12 118.762 1609.68 117.749 1609.34 116.568L1588.69 44.115L1609.69 38.126L1630.35 110.58C1633.94 123.181 1627.15 134.201 1613.36 138.131ZM1641.67 128.357L1615.47 36.477L1639.75 29.553C1652.75 25.848 1663.66 31.254 1667.02 43.067L1673.39 65.38C1676.76 77.193 1670.34 87.539 1657.34 91.244L1654.06 92.18L1662.67 122.369L1641.67 128.357ZM1643.87 48.96L1641.9 49.521L1648.64 73.147L1650.6 72.586C1651.79 72.249 1652.35 71.237 1652.01 70.056L1646.4 50.367C1646.06 49.186 1645.05 48.623 1643.87 48.96ZM1692.49 113.866L1666.29 21.986L1699.11 12.63L1704.53 31.662L1692.72 35.031L1697.59 52.094L1708.09 49.1L1713.33 67.476L1702.82 70.47L1708.06 88.846L1719.88 85.477L1725.3 104.51L1692.49 113.866ZM1730.36 103.067L1704.17 11.187L1729.11 4.07597C1741.71 0.483373 1752.28 5.70098 1755.53 17.12L1761.71 38.778C1763.13 43.765 1762.62 48.452 1760.63 52.426L1778.14 89.444L1757.14 95.432L1743.58 63.815L1742.01 64.264L1751.37 97.079L1730.36 103.067ZM1732.56 23.67L1730.59 24.231L1736.96 46.545L1738.93 45.983C1740.11 45.647 1740.67 44.635 1740.33 43.453L1735.09 25.077C1734.76 23.896 1733.74 23.333 1732.56 23.67ZM1782.08 88.32L1755.89 -3.55943L1776.89 -9.54753L1787.18 26.548L1791.12 25.425L1780.82 -10.6703L1801.82 -16.6583L1828.02 75.221L1807.02 81.209L1796.36 43.801L1792.42 44.924L1803.08 82.332L1782.08 88.32ZM1857.21 68.601C1843.43 72.531 1831.85 66.75 1828.26 54.149L1807.6 -18.3042L1828.6 -24.2923L1849.26 48.161C1849.59 49.343 1850.61 49.906 1851.79 49.569C1852.97 49.232 1853.53 48.22 1853.19 47.039L1832.54 -25.415L1853.54 -31.4031L1874.2 41.051C1877.79 53.651 1871 64.671 1857.21 68.601ZM1885.52 58.827L1859.32 -33.0525L1896.07 -43.5316L1913.24 9.19698L1918.25 26.786L1920.09 26.262L1915.07 8.67297L1901.85 -45.1784L1937.81 -55.4329L1964.01 36.447L1943.01 42.435L1923.55 -25.8187L1921.71 -25.2947L1923.96 -17.4193L1937.76 43.932L1911.77 51.342L1891.14 -8.06292L1888.9 -15.9383L1887.06 -15.4144L1906.52 52.839L1885.52 58.827ZM1970.05 34.724L1943.85 -57.1554L1966.04 -63.4803L1979.03 -36.8136L1984.86 -22.8619L1986.83 -23.4233L1981 -37.375L1972.99 -65.4639L1993.99 -71.452L2020.19 20.428L1998.01 26.753L1985.01 0.0857697L1979.19 -13.8659L1977.22 -13.3045L1983.04 0.647171L1991.05 28.736L1970.05 34.724Z" fill="white"/>
</svg>
