<svg width="52" height="86" viewBox="0 0 52 86" fill="none" xmlns="http://www.w3.org/2000/svg">
  <path d="M44.5542 25.3965L34.3146 28.6806L51.5529 -1.74252e-06L31.8789 6.62712L9.58603 43.6157L19.6068 40.3853L11.7919 53.3505L22.1165 50.002L0.547436 85.793L20.5221 79.2619L47.204 34.988L36.724 38.3879L44.5562 25.3908L44.5542 25.3965ZM34.4934 29.2568L43.2123 26.4609L36.2161 38.0709L35.6776 38.9618L25.8404 42.1536L33.4035 29.6032L34.4931 29.2541L34.4934 29.2568ZM33.8064 28.3609L33.2418 29.2982L23.4307 32.4436L40.2636 4.4401L50.1937 1.09627L33.8064 28.3609ZM36.9035 38.9695L45.853 36.0643L20.1264 78.7554L10.2715 81.9764L36.0157 39.2561L36.9035 38.9695Z" fill="white"/>
</svg>