<svg width="186" height="726" viewBox="0 0 186 726" fill="none" xmlns="http://www.w3.org/2000/svg">
<mask id="path-1-inside-1_4444_2534" fill="white">
<path d="M4 0.320357L182.789 0.320365L182.789 47.5717C182.789 72.8576 167.464 89.7148 144.477 89.7148L101.057 89.7148C78.0697 89.7148 62.7449 72.8576 62.7449 47.5717L62.7449 41.1864L4 41.1864L4 0.320357ZM145.754 45.0176L145.754 41.1864L99.7798 41.1864L99.7798 45.0176C99.7798 47.3163 101.312 48.8488 103.611 48.8488L141.923 48.8488C144.222 48.8488 145.754 47.3163 145.754 45.0176ZM0.935042 138.036C0.935043 111.217 17.2815 93.3385 41.8011 93.3385L144.988 93.3385C169.507 93.3385 185.854 111.217 185.854 138.036C185.854 164.854 169.507 182.733 144.988 182.733L41.8011 182.733C17.2815 182.733 0.935041 164.854 0.935042 138.036ZM37.9699 138.036C37.9699 140.334 39.5024 141.867 41.8011 141.867L144.988 141.867C147.287 141.867 148.819 140.334 148.819 138.036C148.819 135.737 147.287 134.204 144.988 134.204L41.8011 134.204C39.5024 134.204 37.9699 135.737 37.9699 138.036ZM3.99999 199.419L182.789 183.072L182.789 225.981L65.299 229.302L49.9743 229.302L49.9743 232.622L65.299 232.622L182.789 235.943L182.789 289.579L65.299 292.9L49.9743 292.9L49.9743 296.22L65.299 296.22L182.789 299.54L182.789 340.406L3.99999 324.06L3.99999 267.358L107.698 263.527L141.923 263.527L141.923 259.951L107.698 259.951L3.99999 256.12L3.99999 199.419ZM3.99998 343.781L182.789 343.781L182.789 407.634L145.754 407.634L145.754 384.647L112.55 384.647L112.55 405.08L76.7926 405.08L76.7926 384.647L41.0348 384.647L41.0348 407.634L3.99998 407.634L3.99998 343.781ZM3.99998 412.373L182.789 412.373L182.789 460.901C182.789 485.421 167.975 501.767 145.754 501.767L103.611 501.767C93.9052 501.767 85.732 498.447 79.6021 492.828L3.99998 505.343L3.99998 464.477L67.8531 456.304L67.8531 453.239L3.99998 453.239L3.99998 412.373ZM145.754 457.07L145.754 453.239L102.334 453.239L102.334 457.07C102.334 459.369 103.866 460.901 106.165 460.901L141.923 460.901C144.222 460.901 145.754 459.369 145.754 457.07ZM0.935022 585.263C0.935024 558.445 17.2814 540.566 41.8011 540.566L182.789 540.566L182.789 581.432L41.801 581.432C39.5023 581.432 37.9699 582.965 37.9699 585.263C37.9699 587.562 39.5023 589.094 41.801 589.094L182.789 589.094L182.789 629.96L41.801 629.96C17.2814 629.96 0.935021 612.082 0.935022 585.263ZM3.99997 636.108L182.789 636.108L182.789 683.36C182.789 708.646 167.464 725.503 144.477 725.503L101.057 725.503C78.0696 725.503 62.7449 708.646 62.7449 683.36L62.7449 676.974L3.99997 676.974L3.99997 636.108ZM145.754 680.806L145.754 676.974L99.7797 676.974L99.7797 680.806C99.7797 683.104 101.312 684.637 103.611 684.637L141.923 684.637C144.222 684.637 145.754 683.104 145.754 680.806Z"/>
</mask>
<path d="M4 0.320357L4 -2.49745L1.18219 -2.49745L1.18219 0.320357L4 0.320357ZM182.789 0.320365L185.607 0.320365L185.607 -2.49745L182.789 -2.49745L182.789 0.320365ZM62.7449 41.1864L65.5627 41.1864L65.5627 38.3686L62.7449 38.3686L62.7449 41.1864ZM4 41.1864L1.18219 41.1864L1.18219 44.0042L4 44.0042L4 41.1864ZM145.754 41.1864L148.572 41.1864L148.572 38.3686L145.754 38.3686L145.754 41.1864ZM99.7798 41.1864L99.7798 38.3686L96.9619 38.3686L96.9619 41.1864L99.7798 41.1864ZM4 3.13817L182.789 3.13818L182.789 -2.49745L4 -2.49745L4 3.13817ZM179.971 0.320365L179.971 47.5717L185.607 47.5717L185.607 0.320365L179.971 0.320365ZM179.971 47.5717C179.971 59.6502 176.317 69.4665 170.168 76.23C164.042 82.9691 155.245 86.897 144.477 86.897L144.477 92.5326C156.696 92.5326 167.055 88.0319 174.338 80.0209C181.599 72.0343 185.607 60.779 185.607 47.5717L179.971 47.5717ZM144.477 86.897L101.057 86.897L101.057 92.5326L144.477 92.5326L144.477 86.897ZM101.057 86.897C90.2892 86.897 81.4922 82.9691 75.3657 76.23C69.2171 69.4665 65.5627 59.6502 65.5627 47.5717L59.9271 47.5717C59.9271 60.779 63.9351 72.0343 71.1957 80.0209C78.4784 88.0319 88.8373 92.5326 101.057 92.5326L101.057 86.897ZM65.5627 47.5717L65.5627 41.1864L59.9271 41.1864L59.9271 47.5717L65.5627 47.5717ZM62.7449 38.3686L4 38.3686L4 44.0042L62.7449 44.0042L62.7449 38.3686ZM6.81781 41.1864L6.81781 0.320357L1.18219 0.320357L1.18219 41.1864L6.81781 41.1864ZM148.572 45.0176L148.572 41.1864L142.936 41.1864L142.936 45.0176L148.572 45.0176ZM145.754 38.3686L99.7798 38.3686L99.7798 44.0042L145.754 44.0042L145.754 38.3686ZM96.9619 41.1864L96.9619 45.0176L102.598 45.0176L102.598 41.1864L96.9619 41.1864ZM96.9619 45.0176C96.9619 46.8073 97.5708 48.5177 98.8408 49.7877C100.111 51.0577 101.821 51.6666 103.611 51.6666L103.611 46.031C103.102 46.031 102.897 45.8736 102.826 45.8027C102.755 45.7318 102.598 45.5266 102.598 45.0176L96.9619 45.0176ZM103.611 51.6666L141.923 51.6666L141.923 46.031L103.611 46.031L103.611 51.6666ZM141.923 51.6666C143.713 51.6666 145.423 51.0577 146.693 49.7877C147.963 48.5177 148.572 46.8073 148.572 45.0176L142.936 45.0176C142.936 45.5266 142.779 45.7318 142.708 45.8027C142.637 45.8736 142.432 46.031 141.923 46.031L141.923 51.6666ZM3.75285 138.036C3.75285 125.195 7.66001 114.742 14.2528 107.532C20.8247 100.344 30.2618 96.1563 41.8011 96.1563L41.8011 90.5206C28.8207 90.5206 17.8248 95.2728 10.0936 103.729C2.38328 112.162 -1.88277 124.058 -1.88277 138.036L3.75285 138.036ZM41.8011 96.1563L144.988 96.1563L144.988 90.5206L41.8011 90.5206L41.8011 96.1563ZM144.988 96.1563C156.527 96.1563 165.964 100.344 172.536 107.532C179.129 114.742 183.036 125.195 183.036 138.036L188.672 138.036C188.672 124.058 184.406 112.162 176.695 103.729C168.964 95.2728 157.968 90.5206 144.988 90.5206L144.988 96.1563ZM183.036 138.036C183.036 150.876 179.129 161.329 172.536 168.54C165.964 175.728 156.527 179.915 144.988 179.915L144.988 185.551C157.968 185.551 168.964 180.799 176.695 172.343C184.406 163.909 188.672 152.014 188.672 138.036L183.036 138.036ZM144.988 179.915L41.8011 179.915L41.8011 185.551L144.988 185.551L144.988 179.915ZM41.8011 179.915C30.2618 179.915 20.8247 175.728 14.2528 168.54C7.66001 161.329 3.75285 150.876 3.75285 138.036L-1.88277 138.036C-1.88277 152.014 2.38328 163.909 10.0936 172.343C17.8248 180.799 28.8207 185.551 41.8011 185.551L41.8011 179.915ZM35.1521 138.036C35.1521 139.825 35.7609 141.536 37.031 142.806C38.301 144.076 40.0114 144.685 41.8011 144.685L41.8011 139.049C41.292 139.049 41.0868 138.892 41.016 138.821C40.9451 138.75 40.7877 138.545 40.7877 138.036L35.1521 138.036ZM41.8011 144.685L144.988 144.685L144.988 139.049L41.8011 139.049L41.8011 144.685ZM144.988 144.685C146.777 144.685 148.488 144.076 149.758 142.806C151.028 141.536 151.637 139.825 151.637 138.036L146.001 138.036C146.001 138.545 145.844 138.75 145.773 138.821C145.702 138.892 145.497 139.049 144.988 139.049L144.988 144.685ZM151.637 138.036C151.637 136.246 151.028 134.536 149.758 133.266C148.488 131.996 146.777 131.387 144.988 131.387L144.988 137.022C145.497 137.022 145.702 137.18 145.773 137.251C145.844 137.321 146.001 137.527 146.001 138.036L151.637 138.036ZM144.988 131.387L41.8011 131.387L41.8011 137.022L144.988 137.022L144.988 131.387ZM41.8011 131.387C40.0114 131.387 38.301 131.996 37.031 133.266C35.7609 134.536 35.1521 136.246 35.1521 138.036L40.7877 138.036C40.7877 137.527 40.9451 137.321 41.016 137.251C41.0868 137.18 41.2921 137.022 41.8011 137.022L41.8011 131.387ZM3.99999 199.419L3.74343 196.612L1.18218 196.847L1.18218 199.419L3.99999 199.419ZM182.789 183.072L185.607 183.072L185.607 179.985L182.532 180.266L182.789 183.072ZM182.789 225.981L182.868 228.798L185.607 228.721L185.607 225.981L182.789 225.981ZM65.299 229.302L65.299 232.12L65.3388 232.12L65.3786 232.118L65.299 229.302ZM49.9743 229.302L49.9743 226.484L47.1565 226.484L47.1565 229.302L49.9743 229.302ZM49.9743 232.622L47.1565 232.622L47.1565 235.44L49.9743 235.44L49.9743 232.622ZM65.299 232.622L65.3786 229.805L65.3388 229.804L65.299 229.804L65.299 232.622ZM182.789 235.943L185.607 235.943L185.607 233.203L182.868 233.126L182.789 235.943ZM182.789 289.579L182.868 292.396L185.607 292.319L185.607 289.579L182.789 289.579ZM65.299 292.9L65.299 295.717L65.3388 295.717L65.3786 295.716L65.299 292.9ZM49.9743 292.9L49.9743 290.082L47.1565 290.082L47.1565 292.9L49.9743 292.9ZM49.9743 296.22L47.1565 296.22L47.1565 299.038L49.9743 299.038L49.9743 296.22ZM65.299 296.22L65.3786 293.403L65.3388 293.402L65.299 293.402L65.299 296.22ZM182.789 299.54L185.607 299.54L185.607 296.801L182.868 296.724L182.789 299.54ZM182.789 340.406L182.532 343.212L185.607 343.494L185.607 340.406L182.789 340.406ZM3.99999 324.06L1.18218 324.06L1.18218 326.632L3.74342 326.866L3.99999 324.06ZM3.99999 267.358L3.89595 264.542L1.18218 264.643L1.18218 267.358L3.99999 267.358ZM107.698 263.527L107.698 260.709L107.645 260.709L107.593 260.711L107.698 263.527ZM141.923 263.527L141.923 266.345L144.741 266.345L144.741 263.527L141.923 263.527ZM141.923 259.951L144.741 259.951L144.741 257.134L141.923 257.134L141.923 259.951ZM107.698 259.951L107.593 262.767L107.645 262.769L107.698 262.769L107.698 259.951ZM3.99999 256.12L1.18218 256.12L1.18218 258.836L3.89595 258.936L3.99999 256.12ZM4.25655 202.225L183.045 185.878L182.532 180.266L3.74343 196.612L4.25655 202.225ZM179.971 183.072L179.971 225.981L185.607 225.981L185.607 183.072L179.971 183.072ZM182.709 223.165L65.2194 226.485L65.3786 232.118L182.868 228.798L182.709 223.165ZM65.299 226.484L49.9743 226.484L49.9743 232.12L65.299 232.12L65.299 226.484ZM47.1565 229.302L47.1565 232.622L52.7921 232.622L52.7921 229.302L47.1565 229.302ZM49.9743 235.44L65.299 235.44L65.299 229.804L49.9743 229.804L49.9743 235.44ZM65.2194 235.439L182.709 238.759L182.868 233.126L65.3786 229.805L65.2194 235.439ZM179.971 235.943L179.971 289.579L185.607 289.579L185.607 235.943L179.971 235.943ZM182.709 286.763L65.2194 290.083L65.3786 295.716L182.868 292.396L182.709 286.763ZM65.299 290.082L49.9743 290.082L49.9743 295.717L65.299 295.717L65.299 290.082ZM47.1565 292.9L47.1565 296.22L52.7921 296.22L52.7921 292.9L47.1565 292.9ZM49.9743 299.038L65.299 299.038L65.299 293.402L49.9743 293.402L49.9743 299.038ZM65.2194 299.037L182.709 302.357L182.868 296.724L65.3786 293.403L65.2194 299.037ZM179.971 299.54L179.971 340.406L185.607 340.406L185.607 299.54L179.971 299.54ZM183.045 337.6L4.25655 321.254L3.74342 326.866L182.532 343.212L183.045 337.6ZM6.8178 324.06L6.8178 267.358L1.18218 267.358L1.18218 324.06L6.8178 324.06ZM4.10402 270.174L107.802 266.343L107.593 260.711L3.89595 264.542L4.10402 270.174ZM107.698 266.345L141.923 266.345L141.923 260.709L107.698 260.709L107.698 266.345ZM144.741 263.527L144.741 259.951L139.105 259.951L139.105 263.527L144.741 263.527ZM141.923 257.134L107.698 257.134L107.698 262.769L141.923 262.769L141.923 257.134ZM107.802 257.135L4.10402 253.304L3.89595 258.936L107.593 262.767L107.802 257.135ZM6.8178 256.12L6.8178 199.419L1.18218 199.419L1.18218 256.12L6.8178 256.12ZM3.99998 343.781L3.99998 340.963L1.18217 340.963L1.18217 343.781L3.99998 343.781ZM182.789 343.781L185.607 343.781L185.607 340.963L182.789 340.963L182.789 343.781ZM182.789 407.634L182.789 410.452L185.607 410.452L185.607 407.634L182.789 407.634ZM145.754 407.634L142.936 407.634L142.936 410.452L145.754 410.452L145.754 407.634ZM145.754 384.647L148.572 384.647L148.572 381.829L145.754 381.829L145.754 384.647ZM112.55 384.647L112.55 381.829L109.733 381.829L109.733 384.647L112.55 384.647ZM112.55 405.08L112.55 407.897L115.368 407.897L115.368 405.08L112.55 405.08ZM76.7926 405.08L73.9748 405.08L73.9748 407.897L76.7926 407.897L76.7926 405.08ZM76.7926 384.647L79.6104 384.647L79.6104 381.829L76.7926 381.829L76.7926 384.647ZM41.0348 384.647L41.0348 381.829L38.217 381.829L38.217 384.647L41.0348 384.647ZM41.0348 407.634L41.0348 410.452L43.8526 410.452L43.8526 407.634L41.0348 407.634ZM3.99998 407.634L1.18217 407.634L1.18217 410.452L3.99998 410.452L3.99998 407.634ZM3.99998 346.598L182.789 346.598L182.789 340.963L3.99998 340.963L3.99998 346.598ZM179.971 343.781L179.971 407.634L185.607 407.634L185.607 343.781L179.971 343.781ZM182.789 404.816L145.754 404.816L145.754 410.452L182.789 410.452L182.789 404.816ZM148.572 407.634L148.572 384.647L142.936 384.647L142.936 407.634L148.572 407.634ZM145.754 381.829L112.55 381.829L112.55 387.464L145.754 387.464L145.754 381.829ZM109.733 384.647L109.733 405.08L115.368 405.08L115.368 384.647L109.733 384.647ZM112.55 402.262L76.7926 402.262L76.7926 407.897L112.55 407.897L112.55 402.262ZM79.6104 405.08L79.6104 384.647L73.9748 384.647L73.9748 405.08L79.6104 405.08ZM76.7926 381.829L41.0348 381.829L41.0348 387.464L76.7926 387.464L76.7926 381.829ZM38.217 384.647L38.217 407.634L43.8526 407.634L43.8526 384.647L38.217 384.647ZM41.0348 404.816L3.99998 404.816L3.99998 410.452L41.0348 410.452L41.0348 404.816ZM6.81779 407.634L6.81779 343.781L1.18217 343.781L1.18217 407.634L6.81779 407.634ZM3.99998 412.373L3.99998 409.555L1.18217 409.555L1.18217 412.373L3.99998 412.373ZM182.789 412.373L185.607 412.373L185.607 409.555L182.789 409.555L182.789 412.373ZM79.6021 492.828L81.5062 490.751L80.4951 489.824L79.1419 490.048L79.6021 492.828ZM3.99998 505.343L1.18217 505.343L1.18217 508.666L4.46018 508.123L3.99998 505.343ZM3.99998 464.477L3.64222 461.682L1.18217 461.997L1.18217 464.477L3.99998 464.477ZM67.8531 456.304L68.2109 459.099L70.671 458.784L70.671 456.304L67.8531 456.304ZM67.8531 453.239L70.671 453.239L70.671 450.421L67.8531 450.421L67.8531 453.239ZM3.99998 453.239L1.18217 453.239L1.18217 456.057L3.99998 456.057L3.99998 453.239ZM145.754 453.239L148.572 453.239L148.572 450.421L145.754 450.421L145.754 453.239ZM102.334 453.239L102.334 450.421L99.516 450.421L99.516 453.239L102.334 453.239ZM3.99998 415.191L182.789 415.191L182.789 409.555L3.99998 409.555L3.99998 415.191ZM179.971 412.373L179.971 460.901L185.607 460.901L185.607 412.373L179.971 412.373ZM179.971 460.901C179.971 472.599 176.443 482.097 170.516 488.637C164.612 495.151 156.136 498.949 145.754 498.949L145.754 504.585C157.593 504.585 167.634 500.21 174.692 492.421C181.728 484.658 185.607 473.723 185.607 460.901L179.971 460.901ZM145.754 498.949L103.611 498.949L103.611 504.585L145.754 504.585L145.754 498.949ZM103.611 498.949C94.5818 498.949 87.0958 495.874 81.5062 490.751L77.6981 494.905C84.3683 501.019 93.2287 504.585 103.611 504.585L103.611 498.949ZM79.1419 490.048L3.53977 502.563L4.46018 508.123L80.0623 495.608L79.1419 490.048ZM6.81779 505.343L6.81779 464.477L1.18217 464.477L1.18217 505.343L6.81779 505.343ZM4.35774 467.272L68.2109 459.099L67.4954 453.509L3.64222 461.682L4.35774 467.272ZM70.671 456.304L70.671 453.239L65.0353 453.239L65.0353 456.304L70.671 456.304ZM67.8531 450.421L3.99998 450.421L3.99998 456.057L67.8531 456.057L67.8531 450.421ZM6.81779 453.239L6.81779 412.373L1.18217 412.373L1.18217 453.239L6.81779 453.239ZM148.572 457.07L148.572 453.239L142.936 453.239L142.936 457.07L148.572 457.07ZM145.754 450.421L102.334 450.421L102.334 456.057L145.754 456.057L145.754 450.421ZM99.516 453.239L99.516 457.07L105.152 457.07L105.152 453.239L99.516 453.239ZM99.516 457.07C99.516 458.86 100.125 460.57 101.395 461.84C102.665 463.11 104.375 463.719 106.165 463.719L106.165 458.083C105.656 458.083 105.451 457.926 105.38 457.855C105.309 457.784 105.152 457.579 105.152 457.07L99.516 457.07ZM106.165 463.719L141.923 463.719L141.923 458.083L106.165 458.083L106.165 463.719ZM141.923 463.719C143.713 463.719 145.423 463.11 146.693 461.84C147.963 460.57 148.572 458.86 148.572 457.07L142.936 457.07C142.936 457.579 142.779 457.784 142.708 457.855C142.637 457.926 142.432 458.083 141.923 458.083L141.923 463.719ZM182.789 540.566L185.607 540.566L185.607 537.748L182.789 537.748L182.789 540.566ZM182.789 581.432L182.789 584.25L185.607 584.25L185.607 581.432L182.789 581.432ZM182.789 589.094L185.607 589.094L185.607 586.277L182.789 586.277L182.789 589.094ZM182.789 629.96L182.789 632.778L185.607 632.778L185.607 629.96L182.789 629.96ZM3.75283 585.263C3.75283 572.423 7.65999 561.97 14.2528 554.759C20.8247 547.571 30.2618 543.384 41.801 543.384L41.801 537.748C28.8207 537.748 17.8248 542.5 10.0936 550.956C2.38326 559.39 -1.88279 571.285 -1.88279 585.263L3.75283 585.263ZM41.801 543.384L182.789 543.384L182.789 537.748L41.801 537.748L41.801 543.384ZM179.971 540.566L179.971 581.432L185.607 581.432L185.607 540.566L179.971 540.566ZM182.789 578.614L41.801 578.614L41.801 584.25L182.789 584.25L182.789 578.614ZM41.801 578.614C40.0114 578.614 38.301 579.223 37.0309 580.493C35.7609 581.763 35.152 583.474 35.152 585.263L40.7877 585.263C40.7877 584.754 40.945 584.549 41.0159 584.478C41.0868 584.407 41.292 584.25 41.801 584.25L41.801 578.614ZM35.152 585.263C35.152 587.053 35.7609 588.763 37.0309 590.033C38.301 591.303 40.0114 591.912 41.801 591.912L41.801 586.277C41.292 586.277 41.0868 586.119 41.0159 586.048C40.945 585.977 40.7877 585.772 40.7877 585.263L35.152 585.263ZM41.801 591.912L182.789 591.912L182.789 586.277L41.801 586.277L41.801 591.912ZM179.971 589.094L179.971 629.96L185.607 629.96L185.607 589.094L179.971 589.094ZM182.789 627.143L41.801 627.143L41.801 632.778L182.789 632.778L182.789 627.143ZM41.801 627.143C30.2618 627.143 20.8247 622.955 14.2528 615.767C7.65999 608.556 3.75283 598.104 3.75283 585.263L-1.88279 585.263C-1.88279 599.241 2.38326 611.137 10.0936 619.57C17.8248 628.026 28.8207 632.778 41.801 632.778L41.801 627.143ZM3.99997 636.108L3.99997 633.291L1.18216 633.291L1.18216 636.108L3.99997 636.108ZM182.789 636.108L185.607 636.108L185.607 633.291L182.789 633.291L182.789 636.108ZM62.7449 676.974L65.5627 676.974L65.5627 674.157L62.7449 674.157L62.7449 676.974ZM3.99997 676.974L1.18216 676.974L1.18216 679.792L3.99997 679.792L3.99997 676.974ZM145.754 676.974L148.572 676.974L148.572 674.157L145.754 674.157L145.754 676.974ZM99.7797 676.974L99.7797 674.157L96.9619 674.157L96.9619 676.974L99.7797 676.974ZM3.99997 638.926L182.789 638.926L182.789 633.291L3.99997 633.291L3.99997 638.926ZM179.971 636.108L179.971 683.36L185.607 683.36L185.607 636.108L179.971 636.108ZM179.971 683.36C179.971 695.438 176.317 705.255 170.168 712.018C164.042 718.757 155.245 722.685 144.477 722.685L144.477 728.321C156.696 728.321 167.055 723.82 174.338 715.809C181.599 707.822 185.607 696.567 185.607 683.36L179.971 683.36ZM144.477 722.685L101.057 722.685L101.057 728.321L144.477 728.321L144.477 722.685ZM101.057 722.685C90.2891 722.685 81.4921 718.757 75.3657 712.018C69.2171 705.255 65.5627 695.438 65.5627 683.36L59.9271 683.36C59.9271 696.567 63.9351 707.822 71.1956 715.809C78.4783 723.82 88.8373 728.321 101.057 728.321L101.057 722.685ZM65.5627 683.36L65.5627 676.974L59.9271 676.974L59.9271 683.36L65.5627 683.36ZM62.7449 674.157L3.99997 674.157L3.99997 679.792L62.7449 679.792L62.7449 674.157ZM6.81778 676.974L6.81778 636.108L1.18216 636.108L1.18216 676.974L6.81778 676.974ZM148.572 680.806L148.572 676.974L142.936 676.974L142.936 680.806L148.572 680.806ZM145.754 674.157L99.7797 674.157L99.7797 679.792L145.754 679.792L145.754 674.157ZM96.9619 676.974L96.9619 680.806L102.598 680.806L102.598 676.974L96.9619 676.974ZM96.9619 680.806C96.9619 682.595 97.5708 684.306 98.8408 685.576C100.111 686.846 101.821 687.455 103.611 687.455L103.611 681.819C103.102 681.819 102.897 681.662 102.826 681.591C102.755 681.52 102.598 681.315 102.598 680.806L96.9619 680.806ZM103.611 687.455L141.923 687.455L141.923 681.819L103.611 681.819L103.611 687.455ZM141.923 687.455C143.713 687.455 145.423 686.846 146.693 685.576C147.963 684.306 148.572 682.595 148.572 680.806L142.936 680.806C142.936 681.315 142.779 681.52 142.708 681.591C142.637 681.662 142.432 681.819 141.923 681.819L141.923 687.455Z" fill="white" mask="url(#path-1-inside-1_4444_2534)"/>
</svg>
